<?xml version="1.0" standalone="no"?>
<!DOCTYPE svg PUBLIC "-//W3C//DTD SVG 20010904//EN"
 "http://www.w3.org/TR/2001/REC-SVG-20010904/DTD/svg10.dtd">
<svg version="1.0" xmlns="http://www.w3.org/2000/svg"
 width="1084.000000pt" height="1084.000000pt" viewBox="0 0 1084.000000 1084.000000"
 preserveAspectRatio="xMidYMid meet">
<metadata>
Created by potrace 1.11, written by Peter Selinger 2001-2013
</metadata>
<g transform="translate(0.000000,1084.000000) scale(0.100000,-0.100000)"
fill="#000000" stroke="none">
<path d="M4320 9528 c-19 -5 -60 -18 -90 -30 -206 -80 -352 -214 -450 -413
-51 -104 -55 -115 -65 -230 -3 -38 -8 -86 -10 -105 -4 -31 -7 -66 -20 -205
-10 -110 -22 -224 -30 -290 -2 -22 -7 -67 -10 -100 -3 -33 -8 -78 -10 -100 -3
-22 -7 -71 -10 -110 -3 -38 -7 -83 -10 -100 -2 -16 -7 -57 -10 -90 -3 -33 -8
-78 -10 -100 -3 -22 -7 -71 -10 -110 -3 -38 -8 -83 -10 -100 -2 -16 -7 -55
-10 -85 -2 -30 -7 -75 -9 -100 -3 -25 -8 -76 -11 -115 -4 -38 -8 -83 -10 -100
-2 -16 -6 -59 -10 -95 -9 -99 -16 -172 -20 -200 -2 -14 -6 -56 -10 -95 -3 -38
-8 -86 -11 -105 -2 -19 -8 -87 -14 -150 -6 -63 -13 -135 -16 -160 -2 -25 -6
-65 -8 -90 -6 -65 -17 -171 -22 -200 -2 -14 -6 -63 -9 -110 l-6 -85 52 -55
c28 -30 72 -79 98 -107 25 -29 50 -53 56 -53 5 0 35 24 66 53 31 28 79 72 105
96 49 44 183 165 304 276 36 33 85 78 110 100 24 22 73 67 107 100 67 65 65
58 79 215 3 41 8 82 9 92 2 9 6 52 10 95 3 43 8 94 10 113 6 48 20 188 30 295
3 33 7 83 11 110 3 28 7 68 9 90 6 49 16 155 30 305 3 36 7 81 10 100 5 39 15
135 20 195 9 102 16 173 20 205 3 19 7 62 10 95 15 155 24 247 30 295 2 19 7
64 10 100 3 36 8 84 10 108 5 42 -6 84 -191 757 -14 50 -27 97 -29 105 -2 8
-10 33 -17 56 -13 40 -13 41 -48 32z"/>
<path d="M3535 5259 c-27 -27 -80 -75 -117 -106 -36 -32 -69 -65 -73 -73 -10
-22 -12 -38 -30 -231 -2 -20 -6 -65 -10 -100 -3 -35 -8 -82 -10 -104 -3 -22
-7 -65 -10 -95 -3 -30 -8 -80 -11 -110 -3 -30 -7 -73 -9 -95 -2 -22 -7 -70
-10 -107 -3 -37 -7 -75 -9 -85 -2 -10 -7 -52 -10 -93 -4 -41 -9 -91 -11 -110
-3 -19 -7 -66 -11 -105 -3 -38 -8 -83 -10 -100 -2 -16 -6 -61 -9 -100 -4 -38
-8 -83 -10 -100 -4 -39 -15 -139 -20 -190 -8 -81 -16 -161 -20 -200 -3 -22 -9
-92 -15 -155 -5 -63 -12 -131 -15 -150 -2 -19 -7 -64 -10 -100 -4 -36 -8 -81
-10 -100 -7 -60 -14 -132 -20 -200 -3 -36 -8 -87 -12 -115 -7 -57 -8 -67 -18
-185 -4 -47 -9 -93 -11 -103 -2 -10 -6 -59 -9 -110 -6 -81 -3 -103 19 -178 61
-209 203 -359 408 -430 l83 -29 15 33 c8 17 48 102 88 187 41 85 91 191 112
235 48 101 125 265 178 375 41 86 48 124 66 340 3 30 7 71 10 90 3 19 8 71 11
115 3 44 8 94 10 110 5 29 13 113 20 185 2 19 6 67 9 105 4 39 8 86 11 105 4
32 7 58 20 195 2 22 6 63 9 90 3 28 8 79 11 115 4 36 9 81 11 100 2 19 6 62 9
95 3 33 7 76 10 95 6 50 15 146 20 210 6 67 14 153 20 200 6 44 15 131 19 190
2 25 7 70 10 100 l6 55 -52 55 c-29 31 -84 91 -123 135 -38 44 -75 84 -81 90
-6 5 -90 99 -188 208 -98 108 -178 197 -179 196 -1 0 -24 -23 -52 -50z"/>
<path d="M4170 2168 c-13 -29 -57 -123 -98 -208 -41 -85 -87 -182 -102 -215
-15 -33 -59 -125 -97 -205 -38 -80 -78 -163 -88 -185 -10 -22 -20 -43 -22 -46
-1 -4 775 -6 1725 -5 l1727 1 70 24 c153 53 292 149 391 271 54 67 155 263
142 275 -3 3 -200 82 -439 175 l-434 170 -1376 0 -1375 0 -24 -52z"/>
</g>
</svg>
