<svg id="Layer_1" data-name="Layer 1" xmlns="http://www.w3.org/2000/svg" viewBox="0 0 345.6 403.2"><defs><style>.cls-1{fill:#ffff43;}</style></defs><title>letters</title><path class="cls-1" d="M160.7,23.81l78.06-3.39C259,67.54,275.88,116.12,291,165c12.89,41.77,24.39,84.33,33.53,127.2,5.06,23.73,15.5,55.89,9.36,80.38-30.48.41-60.9,1.93-91.35,3.31q6.65-58.56,13.57-117.08c-10.5,2.28-23,4-33.08,8-8.61,3.48-9.65,7.26-16.52,12.77-13.89,11.15-38.06,14.84-55.77,19.75-8.46,23.15-10.56,53.51-24.75,73.23-28.7-1-57.83-4.41-86.37-7.58,5.78-13.54,15.54-25.91,20.52-39.65,4.45-12.3-1-25,2.57-37.35,7.61-26.17,26.32-52.32,37.55-77.23,13.22-29.33,25.4-59.09,37.35-89,7.16-17.89,13.39-30.48,11.37-50C147,53.09,153.51,40.82,160.7,23.81Zm9.11,216.73c11.38-3.8,27.25-7,37-14.48l4.5-8.56a60.87,60.87,0,0,1,23.57-8.89c-11-36.41-22.61-71.2-26.67-109.17C202.9,147.55,184.26,194.48,169.82,240.53Z"/></svg>