<svg id="Layer_1" data-name="Layer 1" xmlns="http://www.w3.org/2000/svg" viewBox="0 0 345.6 403.2"><defs><style>.cls-1{fill:#ffff43;}</style></defs><title>letters</title><path class="cls-1" d="M192.77,365h-128L39.87,342.71V61.23l12.94-9.91L62.9,38.16H205.16l-.65,2.44c3.2,1.35,6.33,3.55,9.63,3.87,6.34.62,12.78.18,19.73.18l1.74,8.09h11.24l2.53,6.89h10.83L275,74.8l1.56-1V85c13.07,4.32,3.43,15.06,7.69,21.9,11.65,3.27,2.95,13.19,6.69,20.12-10.87.59-7,8-7.61,13.38-.51,4.5,2.78,11.22-6.67,9.6v12.43c-7-.37-7.14,4.06-6.79,9.09.22,3.17,1,7-4.42,6.91-.7,0-2.31,3.13-2,3.49,1.56,1.77,3.62,3.1,6.39,5.29,3.5,5.07-6.16,16,6.84,19.41v10.74l19.91,18.86v24.77l7.89,1.57,1.27,2.05-8.9,6.35v22.72c-6.54,2.27-6.54,2.27-7.11,15.59-9.57,0-5.53,7.52-6.44,11.44l-16.62,16h-9l-11.38,15.1H229.56l.69,2.48c-3.21,1.42-6.34,3.72-9.66,4.06-6.34.65-12.79.09-19.19.22C196.94,358.66,190.74,356.38,192.77,365Zm30.32-118.53.69-2.57c-3.24-1.37-6.47-3.91-9.72-3.93-37-.26-74-.14-111.06-.09-2.12,0-4.24.37-6.6.59v86.84l8.92,9.37H206.51c-1.16-7.11,3.6-5.82,7.71-6.48,3.37-.54,6.48-2.68,9.7-4.11l-.74-2.14,11.05-.67c2.4-5.06-2.74-13.06,6.83-13.89.32,0,.67-2,.67-3.06q.07-22.05,0-44.12c-12.11-.92-3.39-11.22-8.31-15.74ZM213,86.82H96.45V160.2l8.83,9.65H210.67l24.09-22.28V110.23L215.12,92.29l-1.42,1.27Z"/></svg>