<svg id="Layer_1" data-name="Layer 1" xmlns="http://www.w3.org/2000/svg" xmlns:xlink="http://www.w3.org/1999/xlink" viewBox="0 0 345.6 403.2"><defs><style>.cls-1{fill:url(#radial-gradient);filter:url(#luminosity-invert-noclip);}.cls-2{mask:url(#mask);}.cls-3{fill:#ffff43;}</style><radialGradient id="radial-gradient" cx="104.83" cy="139.88" r="167.09" gradientUnits="userSpaceOnUse"><stop offset="0.5" stop-color="#fff"/><stop offset="0.55" stop-color="#fff" stop-opacity="0.97"/><stop offset="0.61" stop-color="#fff" stop-opacity="0.88"/><stop offset="0.7" stop-color="#fff" stop-opacity="0.74"/><stop offset="0.79" stop-color="#fff" stop-opacity="0.54"/><stop offset="0.89" stop-color="#fff" stop-opacity="0.29"/><stop offset="1" stop-color="#fff" stop-opacity="0"/></radialGradient><filter id="luminosity-invert-noclip" x="-62.26" y="-27.21" width="381.8" height="403.38" filterUnits="userSpaceOnUse" color-interpolation-filters="sRGB"><feColorMatrix values="-1 0 0 0 1 0 -1 0 0 1 0 0 -1 0 1 0 0 0 1 0" result="invert"/><feFlood flood-color="#fff" result="bg"/><feBlend in="invert" in2="bg"/></filter><mask id="mask" x="-62.26" y="-27.21" width="381.8" height="403.38" maskUnits="userSpaceOnUse"><circle class="cls-1" cx="104.83" cy="139.88" r="167.09"/></mask></defs><title>letters</title><g class="cls-2"><path class="cls-3" d="M141.69,95.77c10.42-6.08,22.35-9.23,35.89-9.23q36.57,0,55.19,21.72,10.42,12.22,17.07,36.2h69.69Q318,113.24,296.7,82.24,258.2,27,174.93,27c-33.85,0-62.75,9.3-86.86,27.58C105.72,68.65,123.49,82.52,141.69,95.77Z"/><path class="cls-3" d="M232.35,292q-18.82,24-54.67,24-35,0-57.65-27.95c-14.39-17.72-21.85-44-22.55-78.77C74.22,193.2,51.8,176,29.6,158.36a272.5,272.5,0,0,0-3.54,44.48q0,80.78,40.74,127.16,40.74,46.16,111.93,46.16,57.53,0,94.35-34.17t45.78-88.7H249.62Q242.75,279.1,232.35,292Z"/></g></svg>