<svg id="Layer_1" data-name="Layer 1" xmlns="http://www.w3.org/2000/svg" viewBox="0 0 345.6 403.2"><defs><style>.cls-1{fill:#ffff43;}</style></defs><title>letters</title><path class="cls-1" d="M226.7,68.94C247.85,77.41,267,90.87,281,108.8c10.29,13.19,19.09,28.65,23,45,3.61,15,6.53,30.28,6.49,45.66-.09,35.22-7.86,68.76-24.83,99.62a151.09,151.09,0,0,1-108.09,76.11A1245.16,1245.16,0,0,1,38.2,388.86Q36.56,201.6,35,14.34A1148,1148,0,0,0,177.51,56.59C194.16,59.42,211,62.53,226.7,68.94ZM104.78,103.22c-.08,20.25,4.08,36.06,8.54,55.56,4.14,18.12,2.36,37.12,2.26,55.56C115.39,251,103.12,290,94,325.47c24.08-1.55,48.21-1.94,72.23-4.41,31.06-3.5,55.37-23.56,66.49-52.66,7.32-18.93,10-38.69,10-58.24,0-23.46-3.09-49.15-15.6-70.24-11.14-18.79-41.47-14.6-59.8-15.78C145.66,122.73,123.3,114.45,104.78,103.22Z"/></svg>