<svg id="Layer_1" data-name="Layer 1" xmlns="http://www.w3.org/2000/svg" viewBox="0 0 345.6 403.2"><defs><style>.cls-1{fill:#ffff43;}</style></defs><title>letters</title><path class="cls-1" d="M245.29,152.54c-5.28-22.78-6.4-52.31-26.91-61.36q-17.19-7.47-38.24-7.47c-26.85,0-35,17.09-52.26,37.34S102,171.75,102,212.4q0,61.43,28.06,87c18.7,17,28.77,6.36,52.61,6.36,23.38,0,40.76-7.47,55.7-20.89s24.38-31.86,27.85-53.6l-90.51-16,27.85-32.72L328.83,161.6l-2.07,206.77H280.6l-7-41.63q-20.14,23.65-36.2,33.34Q209.77,377,169.5,377q-66.3,0-108.61-45.9Q16.77,284.93,16.77,204.88q0-80.95,44.57-129.8T179.23,26.24q63.58,0,102.16,32.24c25.72,21.5,43.67,64,47.44,96.15Z"/></svg>