<svg id="Layer_1" data-name="Layer 1" xmlns="http://www.w3.org/2000/svg" xmlns:xlink="http://www.w3.org/1999/xlink" viewBox="0 0 345.6 403.2"><defs><style>.cls-1{opacity:0.32;}.cls-2{opacity:0.85;}.cls-3{fill:#fff;}.cls-4{mask:url(#mask);}.cls-5{fill:#ffff43;}.cls-6{filter:url(#luminosity-invert-noclip);}</style><filter id="luminosity-invert-noclip" x="-148.57" y="-552.26" width="857.75" height="954.63" filterUnits="userSpaceOnUse" color-interpolation-filters="sRGB"><feColorMatrix values="-1 0 0 0 1 0 -1 0 0 1 0 0 -1 0 1 0 0 0 1 0" result="invert"/><feFlood flood-color="#fff" result="bg"/><feBlend in="invert" in2="bg"/></filter><mask id="mask" x="-148.57" y="-552.26" width="857.75" height="954.63" maskUnits="userSpaceOnUse"><g class="cls-6"><g class="cls-1"><g class="cls-2"><path class="cls-3" d="M-70.2,117.12a61,61,0,0,0,5.71-5.42c6.86-2.09,14.45-5.16,18.66-4,31.2-14.79,65.24-19.41,96.49-44.91C67,56.41,83.72,50.18,105.78,45.94c-4,4-7.83,8.12-12.17,12.25C81.1,64.26,64.29,72,52,89.52c-20.88,11.69-33.38,5.09-50.77,28.75l-5.93,3.51c-8.73-3.75-14.37-8-19.54.82l1.1,7.77-9.11,5.27-.24-1.63-9.12,5.23-1.26.73-1.11-8.19c-3.87,4-7.76,7.56-11.73,11.12-3.2-8.79-10-6.7-8.85-18.4A81.55,81.55,0,0,1-70.2,117.12Z"/><path class="cls-3" d="M1.28,118.27C18.67,94.61,31.16,101.21,52,89.52,64.29,72,81.1,64.26,93.61,58.19c4.33-4.13,8.21-8.26,12.17-12.25l3-2a72,72,0,0,0,5.07,7.32C117.93,40,126.78,41,129.55,33.53c6-2.46,12.27-5.47,18.18-8.42C171.8,8.74,189.81,9.73,208-10.2c13.1-1.7,28.86-22.85,43.85-28.28l9.38-8.43,3-6.94c7.8-6.54,15.4-13.79,23.17-20.73s15.47-14.08,22.94-21.54A39.36,39.36,0,0,0,315-91l-.36,12.09c-2.84,1.88-4.17,5.2-6.09,8.13l-9.42,9.06L284-47.24c-6.94,5.37-13.87,9.77-20.59,14.51l-2.54,13.62-7,6.28c-5-4-10.23,5.94-16.08,6.72-2.39,3-5.08,6.2-7.61,8.81L219,7.69c-9.8,1-13.46-6.18-19,2-4.39,1.17-4.45,7.12-7.62,10-11,3.48-6.49,7.78-8.76,11.35q-5.81,4.57-11.72,8.87c-7.66,1.13-11.55,4-15.46,6.9l-10,7.21c-1-1.12-1.76-2.81-2.83-4.3-1.63,2-3.65,3.93-5.29,6C131.2,60,124.44,64.26,117.54,68a66.93,66.93,0,0,1-5.09-7.3c-8.38,3-5.19,9.83-7.21,13.45l-5.8,3.91-1.53,1L87.06,82.17q-11,7.32-22.13,14.3l-8.48-1.3-8.94,5.63-15.47,5.55-14.9,9.05c-4.3.81-8.54,2-12.77,3.21A8.2,8.2,0,0,1,1.28,118.27Z"/><path class="cls-3" d="M54.32,254.4c.59-.82.81-1.83,1.4-2.63,8.21-10,15.47-12.29,21.14-19.8l7.33,2c3.38-1.73,5.48-4.4,7.59-7.09l4.61-5.17a89.37,89.37,0,0,1,10-2c.06,6.2.13,12.41.2,19.06-4.94,3.6-9.49,7.4-14,11.21-5.17,2.41-10,4.64-15.06,7.3-2.67,1.65-3.4,6.12-5.41,9.58-5.62,6.16-9.56,2.37-16.5-4.44l-.32-2Z"/><path class="cls-3" d="M-32.63,241.95a91.28,91.28,0,0,0,3.49-10.4c8.1-12.19,11.46-18.05,18.69-23.61,8.29-.43,11.9-2.12,15.72-7l-.54-3.66L15.32,191a10.68,10.68,0,0,1,2.16,2.7c6-1.85,11.66-3.92,17.64-6.18a65.07,65.07,0,0,1,8-2.67,19.24,19.24,0,0,1,2.87-4L48.91,179l12.15-9.74c8.17,12.31,8.47-4.47,12.5-5.68,8-8.71,17.49-9.73,23.38-12.8l11.17-5.59,10.53-7c1.81,12.24,10.95-1.67,16.14,2a29.78,29.78,0,0,0,5.67.61l9.31-6.48c2.12-3.76,1.72-10.26,6.32-11.26a43.45,43.45,0,0,0,6.68,6.06c3.21-2.3,6.09-4.34,9.78-4.72l2.88-2.11,3.44-8.93c3.45.16,7.35.45,11.16.35a26.71,26.71,0,0,0,2.37-4c7-4.16,13.84-8.71,20.65-13.53l4.47-3.48,2.61,9c4.84,1.71,10.28-.14,15.4-5.76l2.26,7.41c-1.83,1.93-3.86,4.56-5.71,6.45-8.79,5.5-8.6,13.13-12.42,16.57L218,127.58l-7.77-.83c-7.88,2.9-9.13,12.78-13.71,19.42l-3.29,2.46c-5.09,1.48-10.48,3.33-15.54,4.64l-6.24,4.47c-12.75,2.76-15.57,10.25-16.95,14.34a17.06,17.06,0,0,1-5,1.21c-2.81-.76-5.38-2.15-8.17-2.94-7,.74-6,12.22-10.87,16l-10.25,2.79c-3.5-.8-7.25-1-11-1.63-3,1.55-2.7,8.94-7.08,9.18a80.43,80.43,0,0,0-7.63-3.59c-7.62,2.2-.16,9-6.1,14.6l-6.23,4,.36,2-6.23,4L76.86,232c-5.66,7.51-12.93,9.8-21.14,19.8L53.18,236c-.86-.8-1.37-1.82-2.22-2.62l-5.23-1.25c0-11.47,6.74-9.48,8.88-18.35.13-3.64.25-7.27,0-10.7a45.15,45.15,0,0,0-4.49-5.66,75.49,75.49,0,0,1-9.36,3.54l-22,13.24c-3.08.53-3.9,4.52-5.55,7.71,2.53,10.08,13.65,3.82,12.88,17.59-12.81,2.37-19.88,4.65-27.58,10.1-6.48,1.61-12.94,3.06-19.35,5l-4.88,2.8a80.66,80.66,0,0,0-5.85-7.24Z"/><path class="cls-3" d="M136.79,132.56c3.33-3.19,7.09-6.17,10.4-9.47l6-4.3c1.14.1,2.19-.19,3.31-.11l11.68-4.24c3.39-1.48,6.7-6.3,9.7-4.88,4.52-1.53,8.64-3.23,13.1-5.17,2.35-2.68,4.8-4.92,7.14-7.62L192.29,88l-.92-3.4a62.49,62.49,0,0,1-5.6-6.74,31.38,31.38,0,0,1,2.09-6.09l5.88-4.53,7.42-5.75a36.81,36.81,0,0,0,4.29,3.08c4.55-4,8.71-8,13.19-12.22l1.68.49a21.6,21.6,0,0,0,3.65-.66c6.71-11.92,10.67-15.12,14.68-18.37,4.79,6.18,8.87,1.78,10.56-2.47,2.64-2.71,5.43-6,7.93-9.09-1.08-1.88-2.46-3.52-3.64-5.76l-1.23-7.83A118.74,118.74,0,0,0,261.8-2c2.39-7.34,6.42-8.13,8.15-13.95l6.84-1.92L281.15-26a20.68,20.68,0,0,0,4.23.44l8.17-7.74L298-41.94c7.87-4.64,10.6-9.64,14.64-7.27,2.35-2.2,4.68-4.48,7-6.84l-2-12.17,4.26-4.32,5.42,11.15,4-4.09c-.89-7.9,4.77-11.19,8.91-15.88l-2.17-7.57c2.67-3.23,5.08-6.92,7.42-9.9l8.76-7.39c.38-.91.31-1.82.7-2.75,5.56-6,11.47-12.16,17.14-18.75l1.36-9.19a19.14,19.14,0,0,0,5.64-1.3l6.54-7.41a93,93,0,0,1,7.49-6l10.92-11,3.87,5.81c-.37,6.72-5.28,12.6-10.24,12.27l-5.86,16.34,8.18-2.14c10.42-19.79,21.9-10.43,36.94-26.27.76,6.91-6.43,9.79-6.68,15.32-6.74,8-13.28,16.18-20.13,23.92a37,37,0,0,1-3.06,6l8,12.88c3.27-2.71,6.25-5.09,9.35-8.11,4.72-11.41,7.34-13.52,11.75-11.49l6-17.09c4.68-1.45,5.15,3.73,9.5,3.2l2.86-3.43c2.39-.66,34.7-34.61,65.83-71.69,31.23-36.81,60.83-76.86,63.17-78.2,3.5-3.12,6.78-6.48,9.8-9.44,3.27-3.36,6.31-6.34,9.85-9.53,9-11.71,6.66-30.59,21.3-29.86,0,4.33.07,8.05.11,11.78-5.24,5-2.44,10.4-2.19,13.12-1.25,7.12,4.25,9.26,2.22,14.54-4.57,6.31-9.32,12.45-13.7,18.87l-9.58,3.62c-2.94-3-33.51,38.3-66.11,77.43-32.42,39.47-66.35,77.18-69.63,79-9.47,5.66.23,9.66-3.81,17.15L454.9-85.57l-4.14,5c-3.42,3.67-7.42,7.22-10.94,10.71C433.13-74,429-75,426.05-69a103,103,0,0,1-10.46,6.81l-.19-12,4.43-5c.45-10.73-3.66-11.66-6.74-14.29l-7.22,10.77c-5.22,6-10.46,11.91-15.55,17.28l-3.83,1.66a64.72,64.72,0,0,0-8,1.64q-5,7.6-3,15.24c-4,2.23-7.66,4.86-11.81,7.53a19.62,19.62,0,0,1-6.2,13.17,66,66,0,0,1-8.3,1.58c-2.52,5-5.06,10-7.78,14.77-2.86,1.51-5.84,2.79-8.75,4.19-7.22,4.52-1,11.53-5.35,16.68L316,19.35,311.51-6.24C307.35,4,302.07,6.77,294,5.42l-5.81,5.25c-.64,1.52-1.43,2.7-2.38,4.5-3.17,1.44-6.64,3.14-10.22,4.49l2.53,6.69A102.48,102.48,0,0,1,272,36.55c1.17,3.2-4.3,5.08-8.11,9.27l2.41,6.81C261.67,58,257,63.4,252.42,69.17c-3.79.81-7.56,1.56-11,2l-7.47,13-16.43,8.46-4.47,3.48c-6.81,4.82-13.7,9.37-20.65,13.53a26.71,26.71,0,0,1-2.37,4c-3.81.1-7.7-.19-11.16-.35l-3.44,8.93-2.88,2.11c-3.7.37-6.58,2.42-9.78,4.72a43.45,43.45,0,0,1-6.68-6.06c-7.57,12.2-11.45,14.92-15.63,17.74a29.78,29.78,0,0,1-5.67-.61C135.64,137.39,136.26,135.17,136.79,132.56Z"/><path class="cls-3" d="M165,177.74c2.55-9.07,2.63-16.81,6.48-20l6.24-4.47,2.72,11.16c-4,4.25-7.73,8.24-11.67,12.88A22.63,22.63,0,0,0,165,177.74Z"/><path class="cls-3" d="M225.23,126.11l7.88-6.15,14.67-16,11.08-9.05c3.61-2.89,7.14-6,10.71-9.07L279.8,97.16c2.21-4.69,4.61-10,7.11-15,.27-4,.89-8.18,1.45-12.51l9.3-8.4,2.28.31,17.11-25a19.26,19.26,0,0,0,3,1.95c4.81-2.22,9.34-4.16,14.05-6.77,2-5.76,3.79-10.87,5.57-16.92a153.26,153.26,0,0,0,15.93.91c-1.55,6.56-3.43,12.54-4.8,18.73-4,2.4-8.31,5.1-12.42,7.12q-6.83,9.42-14,18.19l-7.84,7.12c-.81,3.57-1.16,7.23-2,10.81-3.3,3-6.26,5.67-10.22,6.88a113.94,113.94,0,0,1-10.19,6.79l-13.07,9.35c-5.53,3.77-11,7.7-16.46,11.67l-33,28.86a2.68,2.68,0,0,0-2.21-.57Z"/><path class="cls-3" d="M232.1,109.74c1.85-1.88,3.88-4.52,5.71-6.45l10,.65-14.67,16C231.46,115.74,234.07,112.33,232.1,109.74Z"/><path class="cls-3" d="M234,84.23l7.47-13c3.43-.48,7.21-1.24,11-2C257,63.4,261.67,58,266.34,52.63c8.61-3.49,17.17-7.4,25.78-11.44a18.42,18.42,0,0,0-.23,4.93L281.68,57.24c-4,5.28-8.38,10.44-12.5,15.36l-16.07,4.81-16,10.68C234.63,86.45,234.3,85.35,234,84.23Z"/><path class="cls-3" d="M270.44,76.21l15-8.65a22.83,22.83,0,0,1,2.92,2.12c-.57,4.33-1.18,8.51-1.45,12.51-2.5,4.95-4.9,10.28-7.11,15L269.57,85.83C270.12,82.54,270.22,79.2,270.44,76.21Z"/><path class="cls-3" d="M341.33-9.94c2.72-4.72,5.26-9.75,7.78-14.77a66,66,0,0,0,8.3-1.58,19.62,19.62,0,0,0,6.2-13.17c4.16-2.67,7.86-5.3,11.81-7.53q-2-7.64,3-15.24a64.72,64.72,0,0,1,8-1.64l3.83-1.66,2.45,4.37C390.49-40.34,376-29.63,361.86-21l-6.3,18.17c-5.53,5.7-10.79,11-16.49,16.35l-.76-1.68C339.47,4.42,340.34-2.52,341.33-9.94Z"/><path class="cls-3" d="M-25.68,257.4l4.88-2.8c6.41-2,12.87-3.4,19.35-5a8.28,8.28,0,0,0,1.34-3c6.09-1.81,11.8-3.85,17.86-6.08,3.14-2.74,4.89,4.2,8.38-1a51.87,51.87,0,0,0,4.5,6.18c-7.12,14.53-14,16.31-25.77,23.68l-8.71-1.52c-2.13,2.55-5.34,7.5-7.87,4.54,2.21-12.34-6.21.93-8.89-3.27a73.61,73.61,0,0,1-6.15-9.28Z"/><path class="cls-3" d="M55.61,262.49c6.93,6.81,10.88,10.6,16.5,4.44,2-3.47,2.74-7.94,5.41-9.58-2.67,1.65-3.4,6.12-5.41,9.58C66.49,273.09,62.54,269.31,55.61,262.49Z"/><path class="cls-3" d="M55.29,260.48l.32,2Z"/><path class="cls-3" d="M106.58,238.84c-.07-6.65-.13-12.86-.2-19.06l19.56-11.17c6.55,4.7,17.61-2.92,21-12,6.57-6.77,7.45-11.42,10.1-13.24l7.95-5.63a22.63,22.63,0,0,1,3.76-.44c9.67-3.31,19.42-6.57,29.2-10.33l16.42-10.44,15-15.81a2.68,2.68,0,0,1,2.21.57l33-28.86c5.43-4,10.93-7.9,16.46-11.67l13.07-9.35a113.94,113.94,0,0,0,10.19-6.79c4-1.21,6.92-3.9,10.22-6.88.83-3.58,1.18-7.24,2-10.81l7.84-7.12q7.21-8.79,14-18.19c4.11-2,8.41-4.72,12.42-7.12,1.36-6.19,3.25-12.17,4.8-18.73,2.35-2.88,4.53-6.09,6.73-9.29L374.19-5.64c10.75-5.95,14.29-9.38,15.73-13.94l23.66-25.54,15.18-2.43c-2,7.85-5.45,15.06-12.27,20.81-1.09,5.18-1.9,10.07-3.36,15.65-4.08,5.41-10.41,9.25-11,19.41-5.62,2.46-6.79-14-13.25-2.94-3.35,2,.67,3.25-1.23,6.18l-14.72,17c-3,2.62-5.89,1.59-8.58,1.86-2.54,2.64-4.8,4.83-7.72,7.64l4.4,9.71,10.82-6.33a67.87,67.87,0,0,1,2.1,9.64c-3.89,4-6.61,6.46-9.24,9.05-3.87-.12-7.55.06-11.52-.45C345,75.43,327.8,78.23,327.69,95.19c-10.47,2.38-15,16.46-18.21,32.59-63.12,55.33-126.93,102-189.71,143.15a107.24,107.24,0,0,0-3.87-10.42c6.65-9.34,7-17.2,4.48-24.47-3.09,1.6-6.61,3.06-10.11,4.46-.6,4.84-1.54,9.9-2.56,14.58l-15.13-5C97.1,246.24,101.64,242.44,106.58,238.84Z"/><path class="cls-3" d="M129.55,33.53C126.78,41,117.93,40,113.84,51.22a72,72,0,0,1-5.07-7.32C116.81,41.1,116.39,24.41,129.55,33.53Z"/><path class="cls-3" d="M262-63.15c7.9-12.36,28-25.6,37.11-40.18.7-8.52,6-1.69,8.39-6,2.93-1.48,5.33-2.44,8-3.67l1.36-1.38c1.72-5.57,4.85-9.77,15.14-13.39l-3.9,11.67,1.52,2.86c-3.94,3.78-8.49,7.2-12.66,10.48l-6.61,6.68c-7.46,7.46-15.15,14.63-22.94,21.54s-15.37,14.19-23.17,20.73l-3,6.94-9.38,8.43c-15,5.43-30.75,26.58-43.85,28.28C189.81,9.73,171.8,8.74,147.73,25.11,180.68-9,209.24-11.18,240.5-48.6c3.2-1.44,5.76-12.26,8.77-5.49C253.59-57.5,257.79-60.33,262-63.15Z"/><path class="cls-3" d="M-86.48,170.82c5.5-5.25,11-10.54,16.15-15.24,3.21,3.92,7.72-.82,12.37-7a15.09,15.09,0,0,1,1-2.78,16.32,16.32,0,0,0,1.31-2.94c4.29-1.08,8.52-2.22,12.84-2.93l1.26-.73c9.34,6.14,7.22-1.93,9.36-3.6l9.11-5.27c6-2.66,12.12-5.33,18.43-8.59l5.93-3.51a8.2,8.2,0,0,0,3.1.34c3.48,7.24,10,.67,12.77-3.21l14.9-9.05c8.49,1.86,10.41-1.1,12.37-3.63l3.09-1.92,8.94-5.63,8.48,1.3C63.69,99.05,62.5,102,61.32,105L43.61,116.1l-9,5.57a68.82,68.82,0,0,1-9.7,1.5c-7.59,1.9-7.38,7.53-10.32,8.42a67.09,67.09,0,0,1-5.34,7.64l-8.45-1.6c-13.69,4.47-23.9,18.93-36.78,17.43l-9.18,5.28c-5,3.32-10,7-15,10.7-2.29-1.78-4.83-3-7.1-4.81C-73.44,168.41-80.82,177.83-86.48,170.82Z"/><path class="cls-3" d="M33.83,245.5c.94-10.34,7.83-9.61,11.9-13.39L51,233.36c.85.8,1.37,1.82,2.22,2.62l2.54,15.79c-.59.8-.8,1.81-1.4,2.63C47.4,252,40.73,248.42,33.83,245.5Z"/><path class="cls-3" d="M82.09,211.69l6.23-4a24.05,24.05,0,0,1,5.28-1.15l2.78,15.17-4.61,5.17c-3.06-4.72-6.37-8.86-9.32-13.21Z"/><path class="cls-3" d="M-148.57,243.13a61.81,61.81,0,0,1,2.79-5.52,79.93,79.93,0,0,1,9.32-2.94l-3.2-15.42c5.44-3.46,10.51-13.29,16.57-11.35,3-3.44,6-7.27,8.64-11a75.85,75.85,0,0,1,7.06,4.47l17-9.46c9.8-9.43,20-15.17,30.2-20.94,5-3.7,10-7.38,15-10.7l9.18-5.28c12.89,1.49,23.1-13,36.78-17.43l8.45,1.6c7.64,9.6,10.76.63,14.39-2.44A37.09,37.09,0,0,0,30.23,135c9.33,4.45,12.22-1.32,11.88-7.35l3.14-1.93c5.89-4.05,11.69-8.55,17.43-13.14l3.83,2c-.49,8.79.58,9,1.74,9.59,4-.78,5.77-8.58,6.11-12.35C81.62,102,92,94.95,100.64,92.48c3.5-1.85,7.35-3.57,10.89-5.1,4.82-.59,6.15-9.14,7.63-12a58.62,58.62,0,0,0,7.8-3.08c5.42-4.17,8.18,3.25,14.85-1.91,5.24-.57,2.37-8,4.51-9.52,4.06-2.43,8.23-4.45,12-6.41L168,51.42c3.24-4.23-.19-8.93,3.84-11.47q5.91-4.3,11.72-8.87l9.86-7.62a46.44,46.44,0,0,1,7.1-.91l1.56,5.19c9.06-2.08,7.68-8.95,10.78-11l1.49-1.21c11.69,2.49,14.41-6.94,15.77-12.86,2.53-2.62,5.22-5.85,7.61-8.81,5.85-.79,11.09-10.77,16.08-6.72l7-6.28,7.06-2.09,11.14-10c2.52-3.63,4.68-7.11,7.1-10.9L295.81-47l5.57-9.62,9.47-9.13c2.44-1,4.62-1.74,6.79-2.46l2,12.17c-2.27,2.36-4.6,4.64-7,6.84-4-2.37-6.77,2.63-14.64,7.27l-4.49,8.61-8.17,7.74a20.68,20.68,0,0,1-4.23-.44l-4.36,8.16L270-16c-1.73,5.81-5.77,6.61-8.15,13.95a118.74,118.74,0,0,1-9.52,10.61l1.23,7.83c1.18,2.24,2.56,3.88,3.64,5.76-2.5,3.06-5.3,6.38-7.93,9.09-1.69,4.24-5.77,8.65-10.56,2.47-4,3.25-8,6.45-14.68,18.37a21.6,21.6,0,0,1-3.65.66l-1.68-.49c-4.48,4.2-8.65,8.19-13.19,12.22a36.81,36.81,0,0,1-4.29-3.08l-7.42,5.75-5.88,4.53a31.38,31.38,0,0,0-2.09,6.09,7.67,7.67,0,0,0-3.63.43l-4.71-5.14-4,11.62c-2.77-.67-5.32-2-8.07-2.66L147.58,94.8l-5.12,7.71a36.13,36.13,0,0,1-6.7,2.44l-.35-1.54a87.88,87.88,0,0,0-9.22,4.05l-3.94,6.75a68.06,68.06,0,0,1-7.53-3.4l-21,14c-2.53,5.21-5.85,10.13-9.11,6-4.18,2.22-8.12,3.83-12.35,5.64-7.78,7.65-13.94,4.45-21.76,11.91a79.49,79.49,0,0,0-9.19,3.45c-2.23-.84-4.33-3.11-8.24.65-2.71,4.74-5.51,9.08-8,13.23a68.79,68.79,0,0,1-7.23-4.08L5.44,169l-6.75,10.6L-6.67,176a53.6,53.6,0,0,1-7.92,2.44c-.31-4.66-4.31-1.41-8.15.77l-10.07,12a108.64,108.64,0,0,1-10.82,4c-3.89,4.41-6.47.57-10-.49l-9.89,14a8.47,8.47,0,0,1-3.13-.44c-9.45-1.31-9.23,6-12.54,7l-1.61.89c-.63-2.3-1.58-4.4-2.26-7.12l-9.77,1.48c.58,16-7.5,9-11.61,14.83-9.24-13.85-17.08,9.46-29.42,16.26l.68,5.78c-4.59,2.09-9.54,3.94-14.18,5.62Z"/><path class="cls-3" d="M14.56,131.58c2.95-.88,2.74-6.52,10.32-8.42a68.82,68.82,0,0,0,9.7-1.5l9-5.57L61.32,105c1.18-3,2.37-6,3.62-8.55q11.13-7,22.13-14.3L97.9,79.06l1.53-1,5.8-3.91c6.14-.59,9.15-1.3,11.64-1.2a19.53,19.53,0,0,1,.67-5c6.9-3.74,13.66-8,20.79-12.25l8,5.17c-2.14,1.51.73,8.95-4.51,9.52-6.67,5.16-9.43-2.27-14.85,1.91a58.62,58.62,0,0,1-7.8,3.08c-1.48,2.82-2.81,11.36-7.63,12-3.54,1.53-7.39,3.25-10.89,5.1-8.64,2.47-19,9.52-26.29,19.39-.34,3.78-2.06,11.57-6.11,12.35-1.17-.6-2.24-.8-1.74-9.59l-3.83-2c-5.74,4.59-11.54,9.09-17.43,13.14l-3.14,1.93c.34,6-2.55,11.79-11.88,7.35a37.09,37.09,0,0,1-6.61,1.76c-3.64,3.08-6.75,12-14.39,2.44A67.09,67.09,0,0,0,14.56,131.58Z"/><path class="cls-3" d="M87.06,82.17,97.9,79.06Z"/><path class="cls-3" d="M105.24,74.15c2-3.62-1.17-10.43,7.21-13.45a66.93,66.93,0,0,0,5.09,7.3,19.53,19.53,0,0,0-.67,5C114.39,72.85,111.38,73.56,105.24,74.15Z"/><path class="cls-3" d="M130.44,186.37c4.85-3.8,3.92-15.28,10.87-16,2.8.79,5.36,2.17,8.17,2.94a17.06,17.06,0,0,0,5-1.21c1.38-4.09,4.19-11.57,16.95-14.34-3.84,3.19-3.93,10.93-6.48,20l-7.95,5.63c-2.66,1.81-3.54,6.46-10.1,13.24-2.42-4.19-5.08-7.75-7.81-11.72A64.88,64.88,0,0,1,130.44,186.37Z"/><path class="cls-3" d="M138.33,55.75c1.64-2.05,3.66-3.95,5.29-6,1.06,1.49,1.84,3.18,2.83,4.3l-.11,6.85Z"/><path class="cls-3" d="M180.43,164.42c4.07-8.71,8.8-10.09,13.22-14.27l-.39-1.53,3.29-2.46,3.83-13.77c6.08-.79,13-11.32,19.29-6.09,3.83-3.44,3.63-11.07,12.42-16.57,2,2.58-.63,6,1,10.22l-7.88,6.15,4.2,14.61-15,15.81L198,167c-9.78,3.76-19.53,7-29.2,10.33C172.71,172.67,176.42,168.67,180.43,164.42Z"/><path class="cls-3" d="M177.72,153.27c5.07-1.31,10.46-3.16,15.54-4.64l.39,1.53c-4.42,4.17-9.15,5.55-13.22,14.27Z"/><path class="cls-3" d="M183.6,31.08c2.27-3.57-2.25-7.87,8.76-11.35,3.17-2.92,3.23-8.87,7.62-10,5.54-8.18,9.21-1,19-2l-4.6,7.88-1.49,1.21c-8.74-1.73-8.27,4.46-12.34,5.77a46.44,46.44,0,0,0-7.1.91Z"/><path class="cls-3" d="M327.23,10.92c4.37-5.15-1.87-12.17,5.35-16.68,2.9-1.39,5.88-2.67,8.75-4.19-1,7.43-1.86,14.36-3,21.78Z"/><path class="cls-3" d="M269.18,72.6c4.12-4.92,8.54-10.08,12.5-15.36l10.21-11.12,5.77,15.16-9.3,8.4a22.83,22.83,0,0,0-2.92-2.12l-15,8.65Z"/><path class="cls-3" d="M263.92,45.82c3.81-4.19,9.29-6.07,8.11-9.27a102.48,102.48,0,0,0,6.08-10.19c8.6-3.48,10.16-9.15,7.69-11.18,1-1.8,1.73-3,2.38-4.5L294,5.42C302.07,6.77,307.35,4,311.51-6.24L316,19.35l-4.34,4.14-19.5,17.7c-8.62,4-17.18,8-25.78,11.44Z"/><path class="cls-3" d="M339.07,13.51c5.7-5.36,11-10.65,16.49-16.35a99.27,99.27,0,0,0,6.76,9.31c-2.19,3.2-4.38,6.41-6.73,9.29a153.26,153.26,0,0,1-15.93-.91Z"/><path class="cls-3" d="M40.79,200.94a75.49,75.49,0,0,0,9.36-3.54,45.15,45.15,0,0,1,4.49,5.66c.22,3.43.1,7.06,0,10.7-2.14,8.88-8.91,6.88-8.88,18.35-4.07,3.78-11,3.06-11.9,13.39-1,.18-2.15,0-3.2.15a51.87,51.87,0,0,1-4.5-6.18c.77-13.76-10.35-7.51-12.88-17.59,1.65-3.19,2.47-7.18,5.55-7.71Z"/><path class="cls-3" d="M76.22,217.68l6.23-4c2.95,4.35,6.26,8.48,9.32,13.21-2.1,2.69-4.21,5.36-7.59,7.09l-7.33-2Z"/><path class="cls-3" d="M102.06,196.7c4.38-.24,4.06-7.63,7.08-9.18,3.8.61,7.55.83,11,1.63l10.25-2.79a64.88,64.88,0,0,0,8.71-1.48c2.72,4,5.38,7.53,7.81,11.72-3.39,9.08-14.45,16.71-21,12l-19.56,11.17a89.37,89.37,0,0,0-10,2L93.6,206.57a24.05,24.05,0,0,0-5.28,1.15c5.94-5.57-1.52-12.41,6.1-14.6A80.43,80.43,0,0,1,102.06,196.7Z"/><path class="cls-3" d="M234,84.23c1.09,1,2,2.54,3.19,3.86l16-10.68a16.55,16.55,0,0,1,1-3.13l15.07-1.68,1.26,3.61c-.22,3-.32,6.33-.87,9.62-3.57,3-7.1,6.18-10.71,9.07l-11.08,9.05-10-.65-2.26-7.41c-5.12,5.62-10.56,7.47-15.4,5.76l-2.61-9Z"/><path class="cls-3" d="M200.56,22.54c4.54-2.14,9-4.48,13.82-7l-1.49,1.21c-3.1,2-1.72,8.87-10.78,11Z"/><path class="cls-3" d="M291.89,46.12a18.42,18.42,0,0,1,.23-4.93l19.5-17.7L316,19.35l11.27-8.42,11.09.91.76,1.68.6,1.34C337.9,20.9,336.1,26,334.11,31.77c-4.71,2.61-9.24,4.55-14.05,6.77a19.26,19.26,0,0,1-3-1.95l-17.11,25-2.28-.31Z"/><path class="cls-3" d="M-133.91,241.66c12.34-6.8,20.18-30.12,29.42-16.26,4.11-5.8,12.19,1.17,11.61-14.83a8.12,8.12,0,0,1,1.35-3l8.42,1.48c.67,2.72,1.63,4.82,2.26,7.12l1.61-.89c3.31-1,3.09-8.34,12.54-7a8.47,8.47,0,0,0,3.13.44l9.89-14c3.57,1.07,6.14,4.91,10,.49a108.64,108.64,0,0,0,10.82-4l10.07-12c3.84-2.18,7.84-5.43,8.15-.77A53.6,53.6,0,0,0-6.67,176l5.36,3.51L5.44,169l12.37-7.4A68.79,68.79,0,0,0,25,165.64c2.48-4.15,5.28-8.49,8-13.23,3.91-3.75,6-1.48,8.24-.65a79.49,79.49,0,0,1,9.19-3.45c7.83-7.46,14-4.26,21.76-11.91,4.23-1.81,8.17-3.42,12.35-5.64,3.26,4.16,6.59-.77,9.11-6l21-14a68.06,68.06,0,0,0,7.53,3.4c-2,14-11.61,15.11-17.95,21l-8.88,7.66L84.3,148.31c-5.35-.15-4.7,9.24-11.45,11.32l.72,4c-4,1.21-4.33,18-12.5,5.68,2.36-2.78,4.71-5.59,7-8.83L53.68,157,39,170.06l7,10.78a19.24,19.24,0,0,0-2.87,4,65.07,65.07,0,0,0-8,2.67c-6,2.26-11.62,4.34-17.64,6.18a10.68,10.68,0,0,0-2.16-2.7L4.74,197.25l.54,3.66c-3.83,4.91-7.43,6.6-15.72,7-7.22,5.55-10.59,11.41-18.69,23.61l-10.06-2.62c-2.16-3.19-4-3.93-5.87-5.07l-7.74,4.38a19.3,19.3,0,0,1-3.44-2.46l-10.94,6.18c-5.63-.83-11.31-2.07-17-3.32-7.94,5.34-17.57,8.46-24.61,15.88-5.35-4.53-15.1,6.16-24.47,2.94Z"/><path class="cls-3" d="M72.85,159.62c6.75-2.07,6.1-11.46,11.45-11.32l11.11-5.43,8.88-7.66c6.34-5.9,15.9-7,17.95-21l3.94-6.75a87.88,87.88,0,0,1,9.22-4.05l.35,1.54a36.13,36.13,0,0,0,6.7-2.44l8.58,7c5.19-12.3,15.52-19.59,18-12.88,1.71-3.56,3.1-6.84,4.9-10,2.6-2.84,5.53-5.92,8.23-8.38a7.67,7.67,0,0,1,3.63-.43,62.49,62.49,0,0,0,5.6,6.74l.92,3.4,5.85,8.82c-2.34,2.7-4.8,4.93-7.14,7.62-4.46,1.93-8.58,3.64-13.1,5.17-3-1.42-6.31,3.4-9.7,4.88l-11.68,4.24c-1.12-.09-2.17.2-3.31.11l-6,4.3c-3.31,3.3-7.07,6.28-10.4,9.47-.53,2.61-1.15,4.83-2,7.66-5.2-3.63-14.33,10.28-16.14-2l-10.53,7-11.17,5.59c-5.88,3.07-15.34,4.09-23.38,12.8Z"/><path class="cls-3" d="M147.58,94.8l17.77-12.74c2.75.69,5.29,2,8.07,2.66l.92-9.32,3.1-2.3,4.71,5.14c-2.7,2.46-5.63,5.54-8.23,8.38-1.8,3.16-3.19,6.44-4.9,10-2.46-6.71-12.78.58-18,12.88l-8.58-7Z"/><path class="cls-3" d="M53.68,157,68,160.48c-2.26,3.24-4.6,6-7,8.83L48.91,179,46,180.84l-7-10.78Z"/><path class="cls-3" d="M275.58,19.66a8.12,8.12,0,0,0,.86-3.15l9.36-1.34c2.47,2,.91,7.7-7.69,11.18Z"/><path class="cls-3" d="M146.33,60.92l.11-6.85,10-7.21c3.91-2.9,7.8-5.77,15.46-6.9-4,2.53-.6,7.24-3.84,11.47l-9.68,3.09C154.56,56.47,150.39,58.48,146.33,60.92Z"/><path class="cls-3" d="M229.42,140.72a2.68,2.68,0,0,1,2.21.57A2.68,2.68,0,0,0,229.42,140.72Z"/><path class="cls-3" d="M214.39,15.57,219,7.69l11.17-5C228.8,8.63,226.08,18.06,214.39,15.57Z"/></g></g><g class="cls-1"><g class="cls-2"><path class="cls-3" d="M-38.9,116.26l11-12.88,8.66-24.8a80.45,80.45,0,0,0,6.35,6c1,10.73,6.7,8,11.08,15.58C1.1,96.45,4,92.76,6.81,88.72L9.21,96c-4.71,7-7.88,9-12.11,9.62-3.09,6.13-6.3,11-9.84,7.81-3.82,4.87-7.78,10.32-11.74,15.76L-26.76,131l-7.7-9.51Z"/><path class="cls-3" d="M-19.25,78.59A50.92,50.92,0,0,0-15.1,73C-9.39,70.3-3,66.65.94,67.17,26.33,49.72,56.5,41.28,81.1,14.26,95.24,6.7,109.57-1.24,129.46-7.2L120,5.22c-10.61,6.9-24.89,16-33.31,33.2-17.22,13-29.61,8.9-41.46,32.31l-4.78,3.91c-8.52-2.29-14.35-5.38-17.51,3.22l2.33,6.89-7.28,6-.5-1.44-7.27,5.93-1,.8L6.81,88.72c-2.79,4-5.71,7.74-8.63,11.44C-6.2,92.59-11.94,95.3-12.9,84.58A80.45,80.45,0,0,1-19.25,78.59Z"/><path class="cls-3" d="M22.94,77.85c3.16-8.6,9-5.51,17.51-3.22-5.15,3.75-10.17,6.94-15.18,10.11Z"/><path class="cls-3" d="M45.23,70.72C57.08,47.31,69.47,51.41,86.69,38.41c8.42-17.21,22.7-26.3,33.31-33.2L129.46-7.2l2.48-2.15A74,74,0,0,0,137.7-3.1c2.14-10.74,10.55-10.53,12.09-17.63,5.24-2.78,10.6-6.16,15.72-9.3C186-46.74,202.68-46.74,217.57-65.75c11.92-1.89,24.73-21.68,38.25-26.44l8.09-7.64,2.31-6.49c13.43-12.07,27.14-24.33,40.43-36.8a47.31,47.31,0,0,0,4.36,5.44l.08,11.49c-2.51,1.46-3.6,4.47-5.24,7l-8.08,7.85-13,12.44L266.85-86.32l-1.32,12.74L259.6-68c-4.93-4-8.77,5.49-14.1,6.05-1.94,2.73-4.13,5.7-6.22,8.1l-9.77,4.68c-8.9,1-13.07-5.58-17.35,2.14-3.93,1.23-3.29,6.83-5.87,9.68-9.73,3.72-5.07,7.51-6.75,10.89l-9.74,8.7c-6.9,1.45-10.14,4.33-13.38,7.23L168.2-3.18c-1.06-1-2-2.46-3.18-3.75-1.22,2-2.82,3.91-4,5.93-6,4.47-11.64,8.87-17.42,12.94a69.29,69.29,0,0,1-5.76-6.23c-7.31,3.52-3.35,9.46-4.68,12.95l-4.75,4.13-1.25,1.07-9.45,4-18,15.45-8-.25-7.27,6.13L71.21,56.11l-12,10.12c-3.77,1.26-7.43,2.84-11.08,4.43A7.66,7.66,0,0,1,45.23,70.72Z"/><path class="cls-3" d="M116.26,187.56c.39-.8.41-1.74.81-2.53,5.66-9.93,11.78-12.78,15.59-20.19l6.91,1.14c2.74-1.87,4.18-4.47,5.63-7.09,1-1.82,2.23-3.28,3.28-5.09a87.1,87.1,0,0,1,8.62-2.7l3.31,17.28c-3.82,3.69-7.25,7.51-10.66,11.35-4.21,2.63-8.17,5-12.23,8-2.1,1.77-2,5.89-3.21,9.24-4,6.16-8.14,3.15-15.51-2.26l-.63-1.79Z"/><path class="cls-3" d="M35.9,186.92a80.44,80.44,0,0,0,1.37-9.82c5.22-12,7.17-17.88,12.73-23.79,7.4-1.43,10.36-3.4,13-8.32l-1.11-3.25,8.48-7A10.69,10.69,0,0,1,72.75,137c5.13-2.39,9.91-4.82,14.89-7.66a48.31,48.31,0,0,1,6.78-3.4,16.3,16.3,0,0,1,1.92-4l2.31-2L108,109.78c9.4,10.22,6.93-4.93,10.39-6.45,5.88-8.66,14.25-10.61,19.08-13.94l9.2-6.13L155.09,76c3.53,11,9.67-2.32,14.91.62a27.42,27.42,0,0,0,5.21.16l7.44-6.47c1.36-3.55,0-9.48,4-10.67a46.28,46.28,0,0,0,6.88,5.16c2.54-2.29,4.83-4.33,8.09-4.87L204,57.83l1.87-8.28c3.13,0,6.67.17,10.07,0a21.69,21.69,0,0,0,1.58-3.79c5.64-4.12,11.32-8.17,16.79-12.73l3.55-3.27L241.27,38c4.52,1.55,9.07-.26,13-5.27l2.89,6.85-4.28,5.82c-7.07,5.1-5.92,12.12-8.85,15.29l-1.28,1.16-7-.79c-6.65,2.66-6.4,11.87-9.55,18l-2.58,2.32-13.17,4.7-4.89,4.39c-10.93,3.19-12.37,10.09-13,13.89a14,14,0,0,1-4.32,1.41l-7.76-2.16c-6.12,1.12-3.52,11.49-7.26,15.24l-8.72,3.36c-3.26-.43-6.64-.31-10.15-.54-2.46,1.67-1,8.34-4.86,8.94A78.25,78.25,0,0,0,142,128c-6.5,2.7,1.33,8.2-3.09,13.79L134,146l.66,1.79L129.7,152l3,12.87c-3.81,7.41-9.93,10.26-15.59,20.19l-5-14-2.44-2.12c-1.81-.34-3.49-.32-4.9-.51-2-10.42,4.44-9.35,4.87-17.62-.49-3.31-1-6.6-1.77-9.69a44.89,44.89,0,0,0-5-4.61A71,71,0,0,1,95,140.77L77.44,155.33c-2.7.82-2.75,4.55-3.69,7.64,4,8.76,13,1.85,14.63,14.37-11.15,3.61-17.1,6.64-23.1,12.49-5.56,2.24-11.1,4.48-16.53,7.09L44.82,200a80.56,80.56,0,0,0-6.52-5.84Z"/><path class="cls-3" d="M170.66,69.45l8-9.31,4.82-4.31c1,0,1.94-.31,3-.3l9.89-4.58c2.82-1.59,5.18-6,8.08-4.88,3.87-1.56,7.35-3.26,11.09-5.18l5.41-7.2-6.41-8-1.27-3.11a68.56,68.56,0,0,1-5.93-6,27.21,27.21,0,0,1,1.11-5.71l4.8-4.3,6-5.46a39.53,39.53,0,0,0,4.25,2.74L234-7.66l1.58.45a18.08,18.08,0,0,0,3.24-.6c4.75-11,8-14,11.28-17,5,5.86,8.23,1.94,9.35-1.95A95.55,95.55,0,0,0,265.73-35c-1.15-1.79-2.54-3.37-3.82-5.49l-1.84-7.38c2.83-3.14,5.26-6.39,7.69-9.66,1.58-6.75,5.2-7.29,6.33-12.67l6.06-1.43,3.35-7.46a19.18,19.18,0,0,0,3.85.67l7-6.57,3.59-7.69c6.84-3.69,9-8.24,12.75-5.6l5.92-5.74-2.31-11.75,3.69-3.58,5.32,11.24,3.46-3.36c-1.1-7.61,3.87-10,7.4-13.94L332-132.9l6.5-8.24,7.71-5.7c.32-.81.25-1.69.58-2.52l15.11-15.05,1.22-8.51a15,15,0,0,0,5-.16l5.85-5.82a57.26,57.26,0,0,1,6.68-4.22l9.87-8.07,3.31,6.44c-.44,6.34-4.81,10.85-9.24,9.37l-5.22,14.44,7.2-.36c9.32-16.57,19.34-5,32.52-16.42.55,6.8-5.69,7.78-6,13l-17.69,18a27.13,27.13,0,0,1-2.64,5.07l7,13.93a91.54,91.54,0,0,0,8-5.59c4.15-9.5,6.4-10.94,10.21-7.93L423.25-156c4-.21,4.39,4.83,8.11,5.43l2.47-2.52c2.12.07,30.29-23.16,58.24-47.35,28.05-24,55.79-49,57.92-49.15,3.16-1.43,6.16-3.15,8.88-4.66A96.38,96.38,0,0,1,567.7-259c8.44-6.85,8.63-25.26,20.34-18l-1.15,10.88c-4.75,2.24-3,8.43-3.1,11-1.71,5.95,2.53,10.34.39,14.23-4.27,3.75-8.55,7.48-12.63,11.52l-8.11-.74c-2.19-4-30.64,21-59.51,46.31-28.8,25.49-58,51.29-60.82,52.15-8,2.84.18,9.14-3.23,15.11l-5.74,10.32-3.49,3.58-9.21,7.28c-5.77-5.43-9.32-7.26-11.77-2.37a62.47,62.47,0,0,1-8.89,4L400.38-105l3.75-3.74c.24-10-3.31-11.78-6-14.92L392-115.1,378.8-102l-3.28.86a46.54,46.54,0,0,0-7,.11,16.52,16.52,0,0,0-2.15,13.78,92.92,92.92,0,0,0-10.1,5c-.18,5-1.89,9.08-4.81,11.44a52.36,52.36,0,0,1-7.2.24c-2,4.33-3.95,8.66-6.08,12.67L330.8-55c-6,3.44-.1,10.73-3.57,15.05l-9.36,6.49-5.71-24.31c-3,9.1-7.58,11-14.83,9.22L292.58-44c-.45,1.38-1.05,2.43-1.75,4-2.71,1.12-5.67,2.48-8.77,3.51l2.85,6.39A83.48,83.48,0,0,1,280.37-21c1.35,3-3.32,4.58-6.29,8.35l2.82,6.44c-3.62,4.77-7.24,9.51-10.73,14.61-3.28.65-6.54,1.28-9.55,1.67l-5.17,11.9c-4.65,2.37-9.14,5.08-13.63,7.78L234.27,33c-5.46,4.56-11.15,8.61-16.79,12.73a21.69,21.69,0,0,1-1.58,3.79c-3.4.2-6.94.06-10.07,0L204,57.83l-2.29,2.06c-3.25.54-5.54,2.58-8.09,4.87a46.28,46.28,0,0,1-6.88-5.16c-5,11.62-8.16,14.24-11.49,17.15a27.42,27.42,0,0,1-5.21-.16A71.35,71.35,0,0,0,170.66,69.45Z"/><path class="cls-3" d="M202.72,109c.9-8.38-.16-15.45,2.79-18.55l4.89-4.39,4,10.08c-2.94,4.06-5.63,7.88-8.44,12.28A18.63,18.63,0,0,0,202.72,109Z"/><path class="cls-3" d="M248.88,60.46,255,54.79l11-14.4,8.7-8,8.46-7.79,10.2,11.05c1.44-4.14,2.94-9,4.6-13.41-.17-3.68-.09-7.58,0-11.49l7.36-7,2,.48L320.12-17.4a23.45,23.45,0,0,0,2.8,2.16c4.07-1.46,7.89-2.68,11.82-4.49,1.31-5.09,2.49-9.66,3.62-15.1,4.63,1.31,9.37,2,13.86,3-1,5.78-2.11,11.24-2.85,16.79a103.94,103.94,0,0,1-10.18,5c-3.48,5.22-7.1,10.1-10.76,15l-6.13,5.81-.72,9.79c-2.57,2.43-4.87,4.61-8.19,5.35a86.46,86.46,0,0,1-8.18,5.34c-3.49,2.8-6.82,5.09-10.34,7.81-4.41,3.13-8.84,6.25-13.11,9.73-8.61,8.38-16.83,16.9-25.29,25.66a2.51,2.51,0,0,0-2-.53Z"/><path class="cls-3" d="M252.85,45.37l4.28-5.82,8.9.84-11,14.4C253,50.91,254.92,47.76,252.85,45.37Z"/><path class="cls-3" d="M251.45,21.94,256.63,10c3-.39,6.28-1,9.55-1.67,3.49-5.1,7.11-9.85,10.73-14.61l21.75-9.07a17.79,17.79,0,0,0,.24,4.56l-8,9.5c-3,4.69-6.28,9.36-9.43,13.63L267.7,16l-13,9.52C252.31,24,251.89,23,251.45,21.94Z"/><path class="cls-3" d="M282.95,15.78l12.27-7.23A25.27,25.27,0,0,1,298,10.73c-.09,3.91-.17,7.82,0,11.49-1.66,4.44-3.16,9.26-4.6,13.41l-10.2-11.05C283.33,21.59,283.07,18.53,282.95,15.78Z"/><path class="cls-3" d="M18,199.32A94.2,94.2,0,0,1,25,191.49L23.19,186c0-6.94-3.95-.08-7.78-9l6.2-4.93a14.36,14.36,0,0,1,6.14,3.85l9.52,1.16a80.44,80.44,0,0,1-1.37,9.82L26,194.79l3.43,10.61-7.57,6c-1.9,4.27-7.08,10.69-10.75,6.26-4.17-5,2.28-8.25.65-13.38Z"/><path class="cls-3" d="M44.82,200l3.93-3.12c5.42-2.61,11-4.85,16.53-7.09A7.26,7.26,0,0,0,66,187c5.17-2.4,10-4.95,15-7.72,2.36-2.87,5.12,3.21,7.38-1.9a52.31,52.31,0,0,0,5.12,5.07c-3.95,13.87-9.82,16.41-19.14,24.5l-8.11-.29c-1.47,2.6-3.5,7.51-6.29,5.16-.14-11.48-5.41,1.71-8.56-1.8a72.9,72.9,0,0,1-7.15-7.64Z"/><path class="cls-3" d="M118.8,194.74c7.37,5.41,11.53,8.42,15.51,2.26,1.21-3.35,1.11-7.47,3.21-9.24-2.1,1.77-2,5.89-3.21,9.24C130.33,203.16,126.16,200.15,118.8,194.74Z"/><path class="cls-3" d="M118.17,192.95l.63,1.79Z"/><path class="cls-3" d="M160.41,168.38,157.1,151.1l15.62-11.72c6.57,3.66,15.2-3.86,16.81-12.29,4.79-6.53,4.87-10.81,7-12.62l6.23-5.47a18.63,18.63,0,0,1,3.27-.58L230.3,98l13-9.78,11.15-14.33a2.51,2.51,0,0,1,2,.53c8.46-8.76,16.68-17.28,25.29-25.66,4.27-3.48,8.69-6.59,13.11-9.73,3.52-2.72,6.85-5,10.34-7.81a86.46,86.46,0,0,0,8.18-5.34c3.32-.74,5.62-2.92,8.19-5.35l.72-9.79,6.13-5.81c3.65-4.89,7.28-9.76,10.76-15a103.94,103.94,0,0,0,10.18-5c.74-5.55,1.87-11,2.85-16.79,1.87-2.3,3.58-4.94,5.3-7.56l9.61-9.36C376-52.63,379-55,380.07-59l19.36-19.28,13,1.15c-1.5,6.86-4.33,12.61-9.86,16.68-.73,4.62-1.22,9-2.22,13.92-3.23,4.22-8.48,6.52-8.55,15.72-4.69,1.18-6.56-14.38-11.5-5.24-2.76,1.26.75,3.15-.71,5.53L368-17.24c-2.45,1.91-5,.49-7.28.31l-6.1,6,4.48,9.64,8.81-4.2a80.37,80.37,0,0,1,2.45,9.22l-7.18,7c-3.29-.67-6.41-1-9.84-2C347.52,21.86,332.95,22.2,334.53,38c-8.72,1.07-11.23,13.5-12.25,27.9q-71.81,67.2-144.91,130.43c-1.59-3.31-3.3-6-5.14-9.13,4.34-9,3.4-16.1,0-22.49-2.48,1.69-5.37,3.28-8.25,4.85.27,4.46.27,9.13.13,13.44l-14.33-3.24C153.16,175.9,156.59,172.07,160.41,168.38Z"/><path class="cls-3" d="M-24.48,129.17c4-5.44,7.92-10.89,11.74-15.76,3.54,3.17,6.76-1.68,9.84-7.81A13.36,13.36,0,0,1-2.49,103a14.31,14.31,0,0,0,.66-2.82c3.64-1.5,7.27-3,11-4.17l1-.8c9.43,4.35,6.14-2.69,7.77-4.49l7.28-6c5-3.17,10-6.36,15.18-10.11l4.78-3.91a7.66,7.66,0,0,0,2.88-.06c4.39,6.13,9.2-.57,11.08-4.43l12-10.12c8.05.65,9.3-2.27,10.68-4.81l2.5-2.12L91.66,43l8,.25c-.73,2.49-1.34,5.32-1.94,8.16L83.36,63.55l-7.29,6.14a68.69,68.69,0,0,1-8.57,2.57C61,75,62.09,80,59.57,81.18A57,57,0,0,1,56,88.72l-7.95-.43c-11.58,5.78-18.36,20.11-30.13,20.5l-7.35,5.88C6.64,118.24,2.82,122.2-1,126.15c-2.35-1.34-4.84-2.12-7.18-3.49C-13.34,125.38-18.27,134.82-24.48,129.17Z"/><path class="cls-3" d="M96.35,181.91c-.92-9.43,5.43-9.54,8.42-13.51,1.41.2,3.1.17,4.9.51l2.44,2.12,5,14c-.4.79-.41,1.72-.81,2.53C109.66,186.18,103.08,183.82,96.35,181.91Z"/><path class="cls-3" d="M134,146l4.95-4.17a20.36,20.36,0,0,1,4.55-1.53l5,13.48c-1,1.81-2.23,3.27-3.28,5.09L134.65,147.8Z"/><path class="cls-3" d="M-67.34,201.71a55.28,55.28,0,0,1,1.57-5.34A65.65,65.65,0,0,1-58,192.7L-63.36,179c4.22-3.73,7-13.2,12.71-12.09,2.1-3.45,4.08-7.25,5.81-10.88a75,75,0,0,1,7,3.3l13.52-10.48c7.08-9.77,15.19-16.22,23.32-22.67,3.83-4,7.64-7.91,11.58-11.49l7.35-5.88c11.77-.38,18.55-14.71,30.13-20.5l7.95.43c8.57,7.76,9.89-.66,12.65-3.94a33.22,33.22,0,0,0,5.68-2.45c9.23,2.91,10.89-2.66,9.58-8.09l2.53-2.13c4.66-4.4,9.2-9.16,13.74-13.91L104,59.63c1,8,2,8.09,3.14,8.52,3.56-1.13,3.88-8.39,3.59-11.86,5-9.8,13.47-17.28,21-20.43a99.93,99.93,0,0,1,9.21-5.67c4.34-.95,4.3-8.87,5.25-11.58a50.39,50.39,0,0,0,6.71-3.48c4.38-4.25,8,2.4,13.38-2.87,4.72-.92,1.06-7.55,2.81-9.11a120.54,120.54,0,0,1,10.18-6.73l8.52-3.36c2.43-4.07-1.32-8.24,2.07-10.8l9.74-8.7,8.19-7.46a39.65,39.65,0,0,1,6.4-1.12l2,4.79c8.06-2.16,6.09-8.44,8.72-10.37l1.24-1.14c11,2.25,12.42-6.64,13.18-12.09,2.09-2.4,4.28-5.36,6.22-8.1,5.33-.56,9.17-10.06,14.1-6.05l5.93-5.59,6.3-1.64,9.41-8.88L287-93.88l8.56-3.77,4.51-8.68,8.09-7.87c2.18-.67,4.13-1.11,6.07-1.53L316.57-104l-5.92,5.74c-3.74-2.64-5.9,1.9-12.75,5.6L294.32-85l-7,6.57a19.18,19.18,0,0,1-3.85-.67l-3.35,7.46-6.06,1.43c-1.13,5.38-4.75,5.92-6.33,12.67-2.43,3.27-4.86,6.52-7.69,9.66l1.84,7.38c1.28,2.13,2.67,3.7,3.82,5.49a95.55,95.55,0,0,1-6.29,8.21c-1.12,3.88-4.36,7.81-9.35,1.95-3.27,3-6.52,6-11.28,17a18.08,18.08,0,0,1-3.24.6L234-7.66,223.52,3.88a39.53,39.53,0,0,1-4.25-2.74l-6,5.46-4.8,4.3a27.21,27.21,0,0,0-1.11,5.71,6.58,6.58,0,0,0-3.23.54l-5-4.54L197,23.46l-7.71-2.08L174.94,34.22l-3.55,7.42a33.55,33.55,0,0,1-5.76,2.66l-.54-1.38a72.84,72.84,0,0,0-7.79,4.41l-2.58,6.47a70.32,70.32,0,0,1-7.39-2.5L130.38,66c-1.47,5-3.72,9.78-7.33,6.36a121.24,121.24,0,0,1-10.32,6.4c-5.84,7.73-12,5.46-17.82,13.18a68.56,68.56,0,0,0-7.75,4.21c-2.16-.5-4.45-2.3-7.36,1.56-1.65,4.64-3.42,9-5,13a68.25,68.25,0,0,1-7.24-2.85l-10,8.15-4.27,10.43L47.93,124a46.54,46.54,0,0,1-6.73,3.2c-1.08-4.18-4.15-.74-7.2,1.75l-7,12.17A92.94,92.94,0,0,1,18,146c-2.73,4.47-5.7,1.32-9.08.79L2.41,160.69a7.68,7.68,0,0,1-2.88,0c-8.68,0-7.2,6.64-10,8l-1.29,1c-1-2-2.16-3.8-3.22-6.18-2.91.92-5.79,1.87-8.44,2.54,3.2,14.44-5.18,9-7.86,14.75-10.51-11.56-13.61,10.48-23.4,18l1.54,5.2c-3.72,2.41-7.79,4.64-11.61,6.67Z"/><path class="cls-3" d="M59.57,81.18C62.09,80,61,75,67.5,72.26a68.69,68.69,0,0,0,8.57-2.57l7.29-6.14L97.7,51.46c.6-2.84,1.21-5.67,1.94-8.16l18-15.45,9.45-4,1.25-1.07,4.75-4.13c5.59-1.09,8.25-2,10.55-2.12a17.69,17.69,0,0,1-.11-4.6C149.33,7.87,155,3.47,161-1L169,3.15c-1.75,1.56,1.91,8.19-2.81,9.11-5.36,5.27-9-1.38-13.38,2.87a50.39,50.39,0,0,1-6.71,3.48c-1,2.71-.91,10.63-5.25,11.58a99.93,99.93,0,0,0-9.21,5.67c-7.48,3.15-16,10.63-21,20.43.29,3.47,0,10.73-3.59,11.86-1.16-.43-2.17-.49-3.14-8.52l-3.83-1.43C95.65,63,91.11,67.71,86.44,72.11l-2.53,2.13c1.31,5.42-.35,11-9.58,8.09a33.22,33.22,0,0,1-5.68,2.45C65.9,88.06,64.57,96.48,56,88.72A57,57,0,0,0,59.57,81.18Z"/><path class="cls-3" d="M117.67,27.85l9.45-4Z"/><path class="cls-3" d="M133.12,18.66c1.33-3.49-2.63-9.42,4.68-12.95a69.29,69.29,0,0,0,5.76,6.23,17.69,17.69,0,0,0,.11,4.6C141.37,16.66,138.7,17.57,133.12,18.66Z"/><path class="cls-3" d="M173.19,118.81c3.74-3.75,1.14-14.11,7.26-15.24l7.76,2.16a14,14,0,0,0,4.32-1.41c.61-3.79,2-10.69,13-13.89-2.95,3.11-1.89,10.17-2.79,18.55l-6.23,5.47c-2.09,1.8-2.16,6.09-7,12.62-2.8-3.66-5.73-6.73-8.78-10.17A55,55,0,0,1,173.19,118.81Z"/><path class="cls-3" d="M161-1c1.22-2,2.82-3.93,4-5.93,1.18,1.29,2.13,2.79,3.18,3.75L169,3.15Z"/><path class="cls-3" d="M214.43,96.13c2.32-8.2,6.37-9.46,9.7-13.4l-.56-1.39L226.15,79l1.51-12.68c5.25-.94,10.13-10.46,16.35-5.68,2.93-3.17,1.78-10.2,8.85-15.29,2.07,2.38.2,5.54,2.17,9.42l-6.15,5.66,5.59,13.41L243.32,88.21,230.3,98,206,108.42C208.8,104,211.49,100.19,214.43,96.13Z"/><path class="cls-3" d="M210.4,86.05l13.17-4.7.56,1.39c-3.33,3.93-7.38,5.19-9.7,13.4Z"/><path class="cls-3" d="M281.46,12.38c3.15-4.27,6.47-8.94,9.43-13.63l8-9.5,6.46,14.5-7.36,7a25.27,25.27,0,0,0-2.78-2.18l-12.27,7.23Z"/><path class="cls-3" d="M26,194.79l9.88-7.87,2.4,7.29A80.56,80.56,0,0,1,44.82,200l-.57,2.3c-1.21-2.71-4.54,2.25-11.86,3a8.52,8.52,0,0,1-2.94,0Z"/><path class="cls-3" d="M10.58,114.67l7.35-5.88Z"/><path class="cls-3" d="M95,140.77a71,71,0,0,0,7.84-4.29,44.89,44.89,0,0,1,5,4.61c.77,3.08,1.28,6.38,1.77,9.69-.42,8.27-6.86,7.2-4.87,17.62-3,4-9.33,4.08-8.42,13.51-.91.27-1.94.2-2.85.49a52.31,52.31,0,0,1-5.12-5.07c-1.66-12.52-10.63-5.61-14.63-14.37.94-3.09,1-6.82,3.69-7.64Z"/><path class="cls-3" d="M129.7,152l4.95-4.17,10.55,11.09c-1.44,2.62-2.88,5.23-5.63,7.09l-6.91-1.14Z"/><path class="cls-3" d="M149.46,130.57c3.88-.6,2.41-7.27,4.86-8.94,3.51.23,6.89.1,10.15.54l8.72-3.36a55,55,0,0,0,7.56-1.89c3.05,3.44,6,6.51,8.78,10.17-1.61,8.44-10.25,16-16.81,12.29L157.1,151.1a87.1,87.1,0,0,0-8.62,2.7l-5-13.48a20.36,20.36,0,0,0-4.55,1.53c4.42-5.59-3.4-11.09,3.09-13.79A78.25,78.25,0,0,1,149.46,130.57Z"/><path class="cls-3" d="M251.45,21.94c1.08.9,2.07,2.37,3.29,3.61l13-9.52a14.07,14.07,0,0,1,.54-2.88l13.22-.78,1.49,3.4c.12,2.75.38,5.82.24,8.8l-8.46,7.79-8.7,8-8.9-.84-2.89-6.85c-3.9,5-8.45,6.82-13,5.27l-3.44-8.24C242.31,27,246.81,24.31,251.45,21.94Z"/><path class="cls-3" d="M298.89-10.74a17.79,17.79,0,0,1-.24-4.56l15.67-14.83,3.55-3.33L327.23-40,337-37.82l.77,1.66.62,1.33c-1.13,5.44-2.31,10-3.62,15.1-3.92,1.81-7.75,3-11.82,4.49a23.45,23.45,0,0,1-2.8-2.16L307.38,4.25l-2-.48Z"/><path class="cls-3" d="M-54.66,198.8c9.79-7.57,12.89-29.61,23.4-18,2.68-5.72,11.06-.31,7.86-14.75a7.15,7.15,0,0,1,.7-2.83l7.74.29c1.06,2.38,2.27,4.17,3.22,6.18l1.29-1c2.78-1.31,1.31-8,10-8a7.68,7.68,0,0,0,2.88,0l6.47-13.89c3.38.53,6.35,3.68,9.08-.79a92.94,92.94,0,0,0,9.07-4.9l7-12.17c3.06-2.49,6.12-5.93,7.2-1.75a46.54,46.54,0,0,0,6.73-3.2l5.44,2.5,4.27-10.43,10-8.15a68.25,68.25,0,0,0,7.24,2.85c1.54-4,3.32-8.37,5-13,2.92-3.87,5.2-2.06,7.36-1.56A68.56,68.56,0,0,1,94.91,92c5.83-7.71,12-5.45,17.82-13.18A121.24,121.24,0,0,0,123,72.39c3.62,3.41,5.86-1.36,7.33-6.36l16.95-14.73a70.32,70.32,0,0,0,7.39,2.5c.23,12.91-8.27,14.67-13.06,20.71l-6.83,7.82-9.19,6.05c-4.88.4-2.76,8.85-8.55,11.41l1.3,3.55c-3.46,1.52-1,16.67-10.39,6.45,1.66-2.81,3.32-5.6,4.85-8.75L99.27,99.46,88.19,113,96.34,122a16.3,16.3,0,0,0-1.92,4,48.31,48.31,0,0,0-6.78,3.4c-5,2.85-9.76,5.28-14.89,7.66a10.69,10.69,0,0,0-2.41-2.19l-8.48,7L63,145c-2.61,4.92-5.57,6.9-13,8.32-5.56,5.92-7.52,11.79-12.73,23.79l-9.52-1.16a14.36,14.36,0,0,0-6.14-3.85L15.41,177a18.7,18.7,0,0,1-3.51-1.8l-8.76,7c-5.18,0-10.46-.43-15.72-.85-6.19,5.85-14.28,9.69-19.31,17.26-5.52-3.52-12.44,7.31-21.24,5.41Z"/><path class="cls-3" d="M117.09,99.78c5.79-2.55,3.67-11,8.55-11.41l9.19-6.05,6.83-7.82c4.8-6,13.29-7.8,13.06-20.71l2.58-6.47a72.84,72.84,0,0,1,7.79-4.41l.54,1.38a33.55,33.55,0,0,0,5.76-2.66l8.79,5.82c2.93-11.6,11.25-19,14.43-12.9,1.07-3.33,1.89-6.4,3.1-9.38,2-2.72,4.23-5.68,6.37-8a6.58,6.58,0,0,1,3.23-.54,68.56,68.56,0,0,0,5.93,6l1.27,3.11,6.41,8-5.41,7.2c-3.74,1.92-7.22,3.62-11.09,5.18-2.9-1.17-5.26,3.29-8.08,4.88l-9.89,4.58c-1,0-1.93.32-3,.3l-4.82,4.31-8,9.31a71.35,71.35,0,0,1-.66,7.13C164.76,73.64,158.62,87,155.09,76l-8.42,7.31-9.2,6.13c-4.84,3.33-13.2,5.28-19.08,13.94Z"/><path class="cls-3" d="M174.94,34.22l14.36-12.84L197,23.46l-.4-8.61,2.52-2.25,5,4.54c-2.13,2.37-4.38,5.33-6.37,8-1.21,3-2,6-3.1,9.38-3.17-6.13-11.49,1.3-14.43,12.9l-8.79-5.82Z"/><path class="cls-3" d="M27.63,142.94A50.89,50.89,0,0,1,35,141.56c5.13-6.05,9.3-6.23,12.9.53a25.14,25.14,0,0,0-.18,4.32L24.34,156.59Z"/><path class="cls-3" d="M99.27,99.46,112.85,101c-1.52,3.15-3.18,5.94-4.85,8.75L98.66,120l-2.31,2L88.19,113Z"/><path class="cls-3" d="M10.22,95.18l7.27-5.93.5,1.44C16.36,92.49,19.65,99.53,10.22,95.18Z"/><path class="cls-3" d="M9.21,96l1-.8Z"/><path class="cls-3" d="M169,3.15l-.84-6.33,8.22-7.34c3.24-2.89,6.47-5.77,13.38-7.23-3.39,2.56.36,6.73-2.07,10.8l-8.52,3.36A120.54,120.54,0,0,0,169,3.15Z"/><path class="cls-3" d="M254.47,73.87a2.51,2.51,0,0,1,2,.53A2.51,2.51,0,0,0,254.47,73.87Z"/></g></g><g class="cls-1"><g class="cls-2"><path class="cls-3" d="M174.59,35.06a95.33,95.33,0,0,1-10.17,2.81L162,28.77c-1.34-1.75-2.57,0-3.77.87-1.55,3.81,1,7.89,1.64,11.48L157.29,52c-2.74,2.61-30.48,20-58.16,36.11-27.67,16.39-55.24,31.3-58,33.94-3.93,2-7.93,3.63-11.93,5.24a13.79,13.79,0,0,1-1.91-2.81L25.42,115C35.62,114.79,34,99.07,39,93.48c6.45.46,33.86-16.36,61.25-35.48,27.44-18.41,54.84-39,61.65-40a57.16,57.16,0,0,0,8.9-2c3.12,4.07,6.11,8.68,9,12.9C178.12,31.09,176.54,32.72,174.59,35.06Z"/><path class="cls-3" d="M159.86,41.12c-.67-3.59-3.19-7.67-1.64-11.48,1.2-.85,2.43-2.62,3.77-.87l2.43,9.1Z"/><path class="cls-3" d="M541-66.77c-11.2,23.46-23.77,19-40.54,31.71C492.25-17.94,478-9.4,467.54-3.05l-9.47,12-2.46,2a79.7,79.7,0,0,0-5.48-6.59c-2.3,10.71-10.44,10.05-12.18,17-5.21,2.39-10.53,5.36-15.61,8.1C401.93,44.8,385.91,43,370.57,60.24c-11.45.42-24.82,19-38.07,21.46l-8.23,6.45-2.7,6.24c-13.56,10.25-27.59,20.09-41.27,30a58.1,58.1,0,0,0-3.46-6.5l1.11-11.78c2.47-1,3.77-3.8,5.54-6.05l8.24-6.29L304.9,83.56l17.68-9.7,2.18-12.71,6-4.65c4.33,4.84,8.66-4,13.66-3.87a95.9,95.9,0,0,1,6.32-7.37l9.47-3.42c8.46.14,12.11,7.35,16.6.08,3.82-.76,3.5-6.49,6.1-9,9.51-2.54,5.2-7,6.94-10.19l9.6-7.82c6.64-.8,9.85-3.41,13.05-6l8.13-6.63c1,1.05,1.86,2.64,3,4,1.24-1.91,2.84-3.68,4.07-5.6l17.1-11.76a75.06,75.06,0,0,1,5.47,6.59c7.15-3.13,3.41-9.3,4.74-12.72l4.66-3.87,1.23-1,9.25-3.49,17.66-14.68,7.8.45,7.1-5.95,12.91-6.64,11.76-9.84c3.68-1.26,7.24-2.86,10.81-4.46A7.55,7.55,0,0,1,541-66.77Z"/><path class="cls-3" d="M419.62-70.48,412-61.85l-4.63,3.77c-1-.13-1.84.1-2.81,0l-9.4,3.48c-2.68,1.27-5,5.45-7.68,3.95A110.21,110.21,0,0,0,377-46.79c-1.7,2.32-3.52,4.26-5.23,6.56l5.75,8.74,1.1,3.26A78.92,78.92,0,0,1,384-21.52a27.57,27.57,0,0,1-1.22,5.61l-4.65,3.79-5.88,4.75a44.54,44.54,0,0,0-3.9-3.32L358-.61l-1.46-.68a15.37,15.37,0,0,0-3,.14c-4.94,10.38-8.14,12.92-11.32,15.47-4.33-6.66-7.51-3.2-8.76.56-2.1,2.12-4.29,4.84-6.28,7.29,1,2,2.16,3.83,3.22,6.19l1.25,7.74a108.85,108.85,0,0,0-7.82,8.4C321.87,51,318.47,51,317,56.21l-5.73.37-3.67,7a18.31,18.31,0,0,0-3.5-1.39l-6.92,5.41-3.92,7.18c-6.63,2.37-9.06,6.46-12.25,3l-6,4.53,1,12.47-3.74,2.85L268.58,85l-3.48,2.65c.25,8-4.53,9.37-8.13,12.58l1.18,8.22-6.79,7c-2.59,1.53-5.07,2.42-7.68,3.9-.39.74-.43,1.66-.82,2.43l-15.52,11.48-2.19,8.43a12.79,12.79,0,0,0-4.55-1.17l-6,4.44a41.47,41.47,0,0,1-6.52,2.55c-3.34,2.06-6.58,3.43-10,5.39l-2-7.59c1.3-6.35,5.8-9.55,9.51-6.88L212.12,125l-6.42-1.62c-10.38,14.55-17.78-.74-30.79,6.82.49-7.12,6.05-6.12,7-11.33l17.82-12.89a23.58,23.58,0,0,1,2.94-4.44l-4.46-16.24a62.17,62.17,0,0,0-7.62,3.37c-4.74,8.52-7,9.07-9.83,4.85l-6.46,13.19c-3.5-1.11-3.13-6.34-6.24-8.18l-2.45,1.74c-1.8-.73-29,13.72-56,27-27,13.63-53.93,25.78-55.57,25.25-2.77,0-5.44.49-7.89.64a51.58,51.58,0,0,1-7.87.47c-7.92,2.73-12,21.3-19.43,8.15L22,151.31c4.09.1,4.06-7,4.63-9.57,2.52-5.13.14-11.64,2.55-14.47,4-1.62,8-3.23,11.93-5.24l6.12,4.5c.87,4.84,27.85-6.72,55.36-20.91,27.51-13.92,55.48-30.29,57.94-30.26,7.18-.14,1-9.29,4.63-14.13l6.11-8.42,3.39-2.41,8.62-4.54c4.31,7.26,7.16,10.16,9.8,5.95a42,42,0,0,1,8.09-1.42l-.89,11.54-3.66,2.7c-1.33,10.05,1.52,12.95,3.5,16.92,2-2.36,4.34-4.55,6.34-6.94l13-9.58,3,0a38.47,38.47,0,0,0,6.17,1.81c2.88-3.47,4-7.94,3.29-13.36a64.08,64.08,0,0,0,9.39-2.58c.62-5,2.5-8.75,5.31-10.42A45.26,45.26,0,0,1,253.07,42c2.14-3.9,4.27-7.8,6.51-11.33l6.87-1.13c5.7-2.05.94-10.74,4.38-14.26,2.89-1.34,5.69-3.06,8.83-4.61l3.4,25.78c3.43-8.64,7.64-9.64,14.13-6.44l4.65-3.65c.51-1.3,1.13-2.25,1.88-3.75,2.56-.62,5.35-1.43,8.27-1.88l-2.21-7a74.42,74.42,0,0,1,4.7-8.26c-1.06-3.3,3.32-4,6.26-7.18l-2.24-7c3.54-4.21,7.07-8.4,10.49-13,3-.12,6.05-.24,8.84-.16l5.25-11.1c4.37-1.64,8.63-3.67,12.89-5.69l3.41-2.72c5.23-3.72,10.56-7.19,15.91-10.59a20.37,20.37,0,0,1,1.56-3.59c3.17.21,6.46.76,9.39,1.15l1.91-8,2.18-1.78c3.05-.17,5.24-1.94,7.66-3.92a52.19,52.19,0,0,1,6.39,5.86c5-10.92,7.85-13.37,11-16a25.28,25.28,0,0,1,4.89.59C419.95-74.92,419.72-72.89,419.62-70.48Z"/><path class="cls-3" d="M346.75-70.73,341-66.11,330.44-53.58,322.23-47l-8,6.36-8.7-12.85c-1.45,3.93-3,8.37-4.76,12.46,0,3.69-.29,7.56-.58,11.44l-7,5.47-1.79-.9c-4,6.35-8.42,12.52-12.71,19.07a28.14,28.14,0,0,0-2.36-2.76,107,107,0,0,0-10.78,2c-1.5,4.85-2.9,9.06-4.31,14.25-4-2.42-8.17-4.28-12.06-6.35,1.3-5.54,2.7-10.71,3.74-16.07a94.53,94.53,0,0,1,9.33-2.55c3.4-4.5,6.9-8.6,10.42-12.71l5.77-4.5,1.17-9.62c2.41-1.87,4.56-3.55,7.55-3.59a61.28,61.28,0,0,1,7.56-3.6c3.25-2.09,6.37-3.57,9.61-5.71,4.07-2.34,8.17-4.68,12.13-7.4,8.06-6.86,15.76-13.92,23.69-21.18a2.49,2.49,0,0,0,1.81.86Z"/><path class="cls-3" d="M259.58,30.68c-2.24,3.52-4.37,7.43-6.51,11.33a45.26,45.26,0,0,0-6.43-1.49c-2.8,1.67-4.68,5.39-5.31,10.42a64.08,64.08,0,0,1-9.39,2.58c.68,5.42-.41,9.89-3.29,13.36a38.47,38.47,0,0,1-6.17-1.81l-3,0L218,59.77c3.15-19,14.5-22.63,25.45-26l5.37-15L261.71,9l.56,1.85Z"/><path class="cls-3" d="M262.93,135.35l1,3.36-4.4,10.21-4.82,3.56c-2.39,1.32,1.32,6.76-6.39,8.82l-2.53,1.88L237,167.86,231.62,165l-7.08,5.24c-4.75,4.85-9.21,9.62-13.67,14.57-4.48,1.4-8.85,3.19-13.22,5-1.53,1.69-29.21,19.32-57.13,35.74-27.77,16.91-55.84,32.22-57.27,34.3a34.39,34.39,0,0,0-3.43,4.51c-7.24,3-14.48,6.07-21.65,9.33l-2.25-11.48c4.28-3.14,8.73-6.84,12.93-10.36a86,86,0,0,0,10.35-4.52c1.14-2.08,28.78-17.38,56.17-34.22,27.51-16.42,54.82-34,56-35.93l5.2,2.6L217,164.91a33,33,0,0,1,6.07.06c.34-2.08.79-3.76,1.23-5.45l4.8-3.55,12.09-9c5.68-4.69,11-9.49,16.6-14.61l2.25-1.72C261.85,131.61,262.39,133.47,262.93,135.35Z"/><path class="cls-3" d="M46.64,257.3l1.83,9.53c-1.82,2.49-3.64,5-5.39,7.84l-12.31,7.75L21,281.76c-3,4,.3,11.34-4.77,11.7-4.22.28-2.4-10.52-6.56-6.71-3.68,0-4.4,5.72-8.13,8.81l1.28,7.66c-2.58,3.29-5.22,6.22-7.86,9.12L-9,314.66c-2.91,3-6.06,6.33-9.2,9.87l.25,1.62-4,8.88c-3.92,2.2-8.16,4.16-10.94,8.36a37.52,37.52,0,0,1-3.5-4.64l1.55-26c.1-3.14.26-5.87.09-8.86l.74-4.39a30.13,30.13,0,0,1,3.28-4,51.57,51.57,0,0,1,8.05-.11c1.15,2,2.29,4,3.75,6.2,2.56-3.3,5.19-6.18,7.8-9.08l11,.11a142.87,142.87,0,0,0-1.93-18.34,52.36,52.36,0,0,0,1.93-5.14c6.51-1.23,8.67-3.38,7.32-12.76,3.72-7.52,5.1-12.32,8.19-13.71C24,237.8,27,247.82,30.85,245.86L38,248c3.54-2.23,7.35-4.62,11.2-5.26C48.5,247.68,47.49,252.77,46.64,257.3Z"/><path class="cls-3" d="M44.51,282.22c-.6,10.63-5.56,12-10,12.57-.16,8.57-4.48,8.62-6.79,8.61-5,12.31-14.33,15.21-16.74,14.44,0-5.31,0-10.2,0-15.07l6.21-3.71L26,293.82c1.41-1.72,3.15-3.21,4.54-5l.27-6.39,12.31-7.75Z"/><path class="cls-3" d="M2.34,324.75c-5.2,6.64-8.86,12.37-8.71,22.47a48.51,48.51,0,0,0-4.67,5l-7.66,4.33.55,3.66a15.4,15.4,0,0,0-9.45,11.94c-4.17,5-7.22-.35-10.94-.46-1.59-5.28-3.22-11-5.07-16.12,3.77-3.44,7.26-6.72,11-10.58l-.24-1.63c2.78-4.2,7-6.15,10.94-8.36l4-8.88,10.36,4.51c4.82-2-.76-8.41,3.38-12.64Z"/><path class="cls-3" d="M428.88-167.09l3.33,17.18-14.48,10.1c-6.14-4.19-14.06,2.34-15.54,10.51-4.42,6-4.5,10.21-6.43,11.79L390-112.75a15.52,15.52,0,0,1-3,.17l-22.47,7.18-12,7.92L342-84.89a2.49,2.49,0,0,1-1.81-.86c-7.93,7.25-15.64,14.32-23.69,21.18-4,2.72-8.06,5.06-12.13,7.4-3.24,2.14-6.37,3.62-9.61,5.71a61.28,61.28,0,0,0-7.56,3.6c-3,0-5.15,1.72-7.55,3.59l-1.17,9.62-5.77,4.5c-3.52,4.11-7,8.22-10.42,12.71a94.53,94.53,0,0,0-9.33,2.55c-1,5.35-2.44,10.52-3.74,16.07A72.11,72.11,0,0,0,244,7.44l-9.18,7c-8.12,1.6-10.87,3.24-12.15,6.95L204,35.19l-11-5c2-6.45,5-11.36,10.09-13.79,1.07-4.41,1.89-8.65,3.2-13.24,3.15-3.2,7.88-4,8.68-13.3,4.12.07,4.45,16.23,9.47,8.33,2.49-.54-.4-3.36,1.06-5.37l11.08-10.24c2.27-1.27,4.37.79,6.37,1.56l5.77-4.4L245.39-31l-8,1.92c-.76-3.51-1.07-6.48-1.49-9.81L242.63-44c2.82,1.51,5.51,2.65,8.45,4.53,5.82-11.82,18.6-9,18-25,7.71.87,10.55-11,12-24.92q65.66-51.7,131.58-106.48c1.52,3.38,3.14,6.21,4.9,9.39-3.86,8.28-2.9,15.36.37,21.93a77,77,0,0,1,7.6-4c-.32-4.36-.4-8.95-.35-13.17l13.34,4.18C435.47-174,432.36-170.44,428.88-167.09Z"/><path class="cls-3" d="M323.32,104c-7.22,10.77-25.15,19.16-34,30.87-1.26,8.25-5.28-.08-7.61,3.53-2.6.6-4.69.84-7,1.24l-1.26,1c-1.89,5.09-5,8.36-13.87,8.29l4.4-10.21-1-3.36c3.62-2.3,7.6-4.43,11.33-6.36l6-4.59c13.69-9.93,27.71-19.77,41.27-30l2.7-6.24,8.23-6.45c13.25-2.48,26.63-21,38.07-21.46C385.91,43,401.93,44.8,422.34,29.48c-27,32.27-52.51,32.37-79.84,64.1-2.85.85-5.27,11-7.85,3.84C330.79,100,327,102,323.32,104Z"/><path class="cls-3" d="M254.69,152.46c-2.39,1.32,1.32,6.76-6.39,8.82C256,159.23,252.3,153.79,254.69,152.46Z"/><path class="cls-3" d="M237,167.86l8.78-4.69Z"/><path class="cls-3" d="M79.81,264.33c-14.69,13.52-18.89,29.32-28.32,41.12-8.3,10.12-18.7,16.75-27,27.35-4.8,4.2-9,3.6-13.24,3.93l-17.59,10.5c-.15-10.1,3.51-15.84,8.71-22.47l8.6-6.9c2.41.77,11.72-2.13,16.74-14.44,2.3,0,6.63,0,6.79-8.61,4.49-.6,9.45-1.95,10-12.57l1.28-.79A101.41,101.41,0,0,1,56,277.26a14.19,14.19,0,0,1,2.19-3.61C65.33,270.39,72.58,267.36,79.81,264.33Z"/><path class="cls-3" d="M12.66,129.16l-1.2.74L9,116.79l5.7-3.55a30.16,30.16,0,0,1,6.8,2C18.59,119.67,15.79,124.52,12.66,129.16Z"/><path class="cls-3" d="M646.66-199a51.82,51.82,0,0,1-1.22,5.25,65.49,65.49,0,0,1-7.44,4l6.13,13c-4,3.87-6.21,13.24-11.92,12.5-1.88,3.48-3.64,7.3-5.16,10.93a72.16,72.16,0,0,1-7.11-2.81l-12.82,10.92c-6.57,9.79-14.34,16.4-22.11,23-3.62,4-7.24,8-11,11.66l-7,6c-11.64.53-17.92,14.67-29.18,20.47l-7.8-.4c-8.54-7.68-9.61.69-12.29,3.86a31.4,31.4,0,0,0-5.53,2.3c-9.07-3.07-10.6,2.37-9.27,7.77l-2.45,2c-4.51,4.24-8.89,8.84-13.28,13.44l-3.72-1.54c-1-8-2-8.11-3.08-8.57-3.43,1-3.71,8.22-3.42,11.69-4.81,9.6-13.18,16.49-20.43,19.23a89.5,89.5,0,0,1-9,5.11c-4.19.68-4.26,8.61-5.22,11.27a45.23,45.23,0,0,0-6.51,3.07c-4.28,4-7.64-2.95-12.93,1.82-4.56.49-1.21,7.45-2.94,8.86a105.16,105.16,0,0,1-10,5.81l-8.25,2.56c-2.45,3.86,1,8.43-2.35,10.68l-9.6,7.82-8.15,6.56a34.52,34.52,0,0,1-6.16.32l-1.68-5.08c-7.75,1.12-6.19,7.71-8.79,9.32l-1.23,1c-10.27-3.76-12.05,5-13.1,10.46a95.9,95.9,0,0,0-6.32,7.37c-5-.12-9.33,8.71-13.66,3.87l-6,4.65-6,.57-9.42,7.36L303.2,78,295,80.31l-5,7.89-8.22,6.29a56.22,56.22,0,0,1-5.74.25l-1-12.47,6-4.53c3.19,3.47,5.62-.61,12.25-3l3.92-7.18,6.92-5.41a18.31,18.31,0,0,1,3.5,1.39l3.67-7,5.73-.37c1.44-5.25,4.84-5.16,6.78-11.71a108.85,108.85,0,0,1,7.82-8.4l-1.25-7.74c-1.06-2.36-2.26-4.19-3.22-6.19,2-2.45,4.18-5.17,6.28-7.29,1.25-3.76,4.43-7.22,8.76-.56,3.19-2.54,6.38-5.08,11.32-15.47a15.37,15.37,0,0,1,3-.14L358-.61,368.35-10.7a44.54,44.54,0,0,1,3.9,3.32l5.88-4.75,4.65-3.79A27.57,27.57,0,0,0,384-21.52,5.66,5.66,0,0,0,387-21.7l4.53,5.09,2.31-10.66,7.23,2.89,14-11.37,3.53-7a30.68,30.68,0,0,1,5.5-2.21l.5,1.43a63,63,0,0,0,7.46-3.84l2.53-6.27a73,73,0,0,1,7,3L458-64.2c1.43-4.87,3.59-9.44,7.08-5.85,3.3-2.28,6.47-4,9.88-5.94,5.56-7.45,11.51-5,17.07-12.44a62.24,62.24,0,0,0,7.46-3.92c2.1.55,4.36,2.4,7.14-1.34l4.6-12.69a70.25,70.25,0,0,1,7.08,2.87l9.47-8,3.87-10.25L537-119.3a44,44,0,0,1,6.48-3.15c1.18,4.09,4.08.72,7-1.74l6.43-12a88.93,88.93,0,0,1,8.66-5c2.49-4.45,5.52-1.43,8.86-1l5.74-13.74A7.62,7.62,0,0,1,583-156c8.53-.24,6.77-6.68,9.45-8l1.22-1c1,1.92,2.32,3.62,3.48,5.9l8.21-2.78c-3.92-13.92,4.59-9.06,6.91-14.77,11,10.68,12.82-10.92,22-18.76l-1.85-4.94c3.52-2.54,7.4-4.92,11.06-7.1Z"/><path class="cls-3" d="M325.07,71.93l-2.49,1.94-17.68,9.7L291.72,93.78l-8.24,6.29c-1.77,2.26-3.07,5.09-5.54,6.05l-1.11,11.78a58.1,58.1,0,0,1,3.46,6.5l-6,4.59c-3.74,1.93-7.71,4.06-11.33,6.36l-2.88-4.66-2.25,1.72c-5.55,5.12-10.91,9.92-16.6,14.61-.25-8.44,1.26-9.56,3.78-17.79l8.26-2c-.72-3.56-1.3-7.68-1.89-11.79l6.79-7,14.19-10.8,3.74-2.85a56.22,56.22,0,0,0,5.74-.25L290,88.21l5-7.89L303.2,78l6.15-8.94,9.42-7.36,6-.57C324.71,64.88,324.89,68.4,325.07,71.93Z"/><path class="cls-3" d="M270.83,15.29c-3.44,3.52,1.33,12.21-4.38,14.26l-6.87,1.13,2.69-19.83Z"/><path class="cls-3" d="M253.25,127.2l-8.26,2c-.08,8.24-9.09,10.82-3.78,17.79l-12.09,9-4.8,3.55L217.07,154c.07,3.6.15,7.17,0,10.93l-20.5,14.83-5.2-2.6c-1.15,1.91-28.46,19.51-56,35.93-27.39,16.84-55,32.14-56.17,34.22a86,86,0,0,1-10.35,4.52c.68-6.64,1.07-13.14,1.62-20.23,1.6-1.22,29.34-15.72,57-31.5,27.71-15.55,55.34-32.15,57-33.35a41.19,41.19,0,0,1,5,3.18c4.86-8.89,6.42-13.18,8.68-17,3.37-2,6.61-3.33,10-5.39a41.47,41.47,0,0,0,6.52-2.55l6-4.44a12.79,12.79,0,0,1,4.55,1.17l2.19-8.43,15.52-11.48c.4-.76.43-1.68.82-2.43,2.61-1.49,5.09-2.38,7.68-3.9C251.95,119.52,252.53,123.65,253.25,127.2Z"/><path class="cls-3" d="M223.1,165a33,33,0,0,0-6.07-.06c.19-3.76.11-7.33,0-10.93l7.26,5.54C223.89,161.22,223.44,162.9,223.1,165Z"/><path class="cls-3" d="M58.16,273.65A14.19,14.19,0,0,0,56,277.26a101.41,101.41,0,0,0-10.17,4.17l-1.28.79-1.42-7.55c1.75-2.87,3.57-5.36,5.39-7.84l7.43-4.67Z"/><path class="cls-3" d="M27.32,124.46c-3.13,4.61-5.94,9.48-8.85,14-1.36,0-2.63.32-4,.27l-1.82-9.53c3.13-4.63,5.93-9.48,8.8-13.93a13.31,13.31,0,0,1,4-.27Z"/><path class="cls-3" d="M10.94,317.85l-8.6,6.9L-4.17,318c-1,13-5.27,13.34-7.29,15-2.06-2.28-5.5-2.49-6.45-6.84l-.25-1.62C-15,321-11.87,317.7-9,314.66l3.88-2.32c2.64-2.9,5.29-5.83,7.86-9.12a77,77,0,0,0,8.16-.45C10.94,307.65,10.94,312.53,10.94,317.85Z"/><path class="cls-3" d="M320.74-1.67c-2.95,3.22-7.32,3.89-6.26,7.18a74.42,74.42,0,0,0-4.7,8.26c-6.92,1.27-8.08,6.3-6.06,8.84-.75,1.5-1.37,2.45-1.88,3.75L297.18,30c-6.48-3.2-10.7-2.19-14.13,6.44l-3.4-25.78L283.07,8,298.15-3.73,318.5-8.63Z"/><path class="cls-3" d="M261.71,9l-12.88,9.79c-1.47-3.9-3.17-7.62-4.88-11.35a72.11,72.11,0,0,1,5.25-6.26c3.89,2.07,8,3.93,12.06,6.35Z"/><path class="cls-3" d="M272.33,97.6l-14.19,10.8L257,100.19c3.61-3.21,8.38-4.57,8.13-12.58L268.58,85Z"/><path class="cls-3" d="M248.83,18.79l-5.37,15c-11,3.34-22.3,6.92-25.45,26L219.5,65l-13,9.58-2-7.15-4.19-5.53.89-11.54a42,42,0,0,0-8.09,1.42L188.63,35.6c-1.65,3.49-3.54,7.15-5.3,10.26l-8.62,4.54c0-5.43.05-10.48-.11-15.34,1.95-2.34,3.53-4,5.24-6.13,3,1.42,5.51,3.2,8.28,4.78l4.82-3.54,11,5,1.48,5.26c7.69-3.9,14.09-6.25,18.68-13.85l-1.52-5.23c1.28-3.71,4-5.35,12.15-6.95l9.18-7C245.66,11.17,247.37,14.89,248.83,18.79Z"/><path class="cls-3" d="M224.13,26.61c-4.59,7.6-11,9.95-18.68,13.85L204,35.19l18.65-13.82Z"/><path class="cls-3" d="M231.95,53.52c.68,5.42-.41,9.89-3.29,13.36a38.47,38.47,0,0,1-6.17-1.81,38.47,38.47,0,0,0,6.17,1.81C231.53,63.42,232.62,58.94,231.95,53.52Z"/><path class="cls-3" d="M206.51,74.61c-2,2.39-4.34,4.58-6.34,6.94-2-4-4.83-6.87-3.5-16.92l3.66-2.7,4.19,5.53Z"/><path class="cls-3" d="M205.61,138.39c-3.71-2.67-8.22.53-9.51,6.88l-11,7.89c-1.2.56-28.36,16.73-55.65,31.62-27.17,15.4-54.5,29.07-55.62,29.82l-3.35,17-5.79-.27L49.25,242.78c-3.86.63-7.66,3-11.2,5.26l-7.2-2.17c-3.86,2-6.84-8.06-15.47-3.26-3.09,1.39-4.47,6.19-8.19,13.71,1.36,9.38-.81,11.54-7.32,12.76a52.36,52.36,0,0,1-1.93,5.14A142.87,142.87,0,0,1-.13,292.56l-11-.11c-2.61,2.9-5.24,5.78-7.8,9.08-1.46-2.22-2.61-4.19-3.75-6.2a51.57,51.57,0,0,0-8.05.11l2-13.91,6.83-14.59c.5-9.13,5.24-20.36-.25-27.3,0-4.86,0-10.19,0-15.07a84.2,84.2,0,0,1-5.61-11.27l-2.45,1.44L-36.08,201l4.6-11.14.93-9c1.23-3.82,2.28-7.1,3.55-10.52,3-2.65,5.75-5.16,8.81-7.4a28.25,28.25,0,0,1,1.72-5.43l1.53-4.9,7.75,7.81,1.56,1.29c2.29-3.6,4.91-6.81,7.18-10.5,4.27-4.46,8.61-8.51,12.94-12.54,1.36,0,2.62-.31,4-.27l8.21,3.32c-.57,2.58-.54,9.67-4.63,9.57l-3.17,10.42c7.43,13.15,11.51-5.42,19.43-8.15a51.58,51.58,0,0,0,7.87-.47c2.44-.16,5.12-.61,7.89-.64,1.63.53,28.55-11.63,55.57-25.25,27-13.29,54.2-27.74,56-27l2.45-1.74c3.11,1.84,2.73,7.08,6.24,8.18l6.46-13.19c2.88,4.23,5.09,3.68,9.83-4.85a62.17,62.17,0,0,1,7.62-3.37l4.46,16.24a23.58,23.58,0,0,0-2.94,4.44l-17.82,12.89c-1,5.22-6.54,4.22-7,11.33,13-7.56,20.41,7.73,30.79-6.82l6.42,1.62Z"/><path class="cls-3" d="M193.13,51.81c-2.64,4.21-5.49,1.31-9.8-5.95,1.76-3.11,3.66-6.78,5.3-10.26Z"/><path class="cls-3" d="M174.71,50.41l-3.39,2.41-6.11,8.42c-3.62,4.84,2.55,14-4.63,14.13-2.46,0-30.43,16.34-57.94,30.26-27.51,14.19-54.49,25.75-55.36,20.91L41.15,122c2.74-2.64,30.31-17.55,58-33.94C126.81,72,154.55,54.58,157.29,52l2.57-10.84,4.56-3.25a95.33,95.33,0,0,0,10.17-2.81C174.76,39.92,174.68,45,174.71,50.41Z"/><path class="cls-3" d="M198.12,152.86c-2.26,3.87-3.82,8.15-8.68,17a41.19,41.19,0,0,0-5-3.18c.37-4.32.64-9,.64-13.56l11-7.89Z"/><path class="cls-3" d="M70.45,231.57c-.55,7.09-.94,13.6-1.62,20.23-4.2,3.52-8.65,7.22-12.93,10.36l-7.43,4.67-1.83-9.53c.85-4.53,1.86-9.62,2.61-14.53L64.66,231.3Z"/><path class="cls-3" d="M17.16,299.06l-6.21,3.71a77,77,0,0,1-8.16.45L1.5,295.56c3.73-3.09,4.45-8.85,8.13-8.81,4.16-3.81,2.34,7,6.56,6.71Z"/><path class="cls-3" d="M298.2-8.35a19.9,19.9,0,0,1-.06,4.62L283.07,8l-3.41,2.64c-3.15,1.55-5.94,3.27-8.83,4.61l-8.55-4.44L261.71,9l-.45-1.48c1.41-5.2,2.81-9.41,4.31-14.25a107,107,0,0,1,10.78-2A28.14,28.14,0,0,1,278.71-6c4.29-6.55,8.67-12.72,12.71-19.07l1.79.9Z"/><path class="cls-3" d="M26.68,141.74l-8.21-3.32c2.91-4.47,5.72-9.34,8.85-14a13.79,13.79,0,0,0,1.91,2.81C26.82,130.1,29.19,136.61,26.68,141.74Z"/><path class="cls-3" d="M14.48,138.69c-4.33,4-8.67,8.09-12.94,12.54-2.2-1.74-4.07-3.27-6.19-4.68l16.11-16.66,1.2-.74Z"/><path class="cls-3" d="M30.51,288.82c-1.4,1.79-3.13,3.28-4.54,5l-8.81,5.24-1-5.6c5.07-.37,1.79-7.71,4.77-11.7l9.82.67Z"/><path class="cls-3" d="M184.43,166.72c-1.63,1.2-29.26,17.8-57,33.35-27.66,15.78-55.41,30.28-57,31.5l-5.79-.27c.79-11.58,6.6-11,9.14-16.7,1.11-.75,28.45-14.42,55.62-29.82,27.28-14.89,54.45-31.06,55.65-31.62C185.06,157.69,184.79,162.4,184.43,166.72Z"/><path class="cls-3" d="M-5.64,161.73l-1.56-1.29,1.6-13.32,1-.57c2.12,1.41,4,2.94,6.19,4.68C-.74,154.92-3.35,158.13-5.64,161.73Z"/><path class="cls-3" d="M312,20.74a7.17,7.17,0,0,0-.65,2.81l-7.62-.92c-2-2.55-.86-7.58,6.06-8.84Z"/><path class="cls-3" d="M224.4,122.68a23.09,23.09,0,0,0-4.79-1c-.77-10.33,6.49-8,7.7-14.31l4.25,5.48C229.14,116,226.72,119.15,224.4,122.68Z"/><path class="cls-3" d="M237,167.86c-2.33,10.35-13,10.51-15.53,17.86-.1,4.12-3,3.63-9.67,2.51-5.1,5.92-8.1,15.31-15.61,18-1.37-.6-28.43,13.57-55.81,26.9-27.26,13.74-54.94,26.18-57.12,26.72,1.44-2.08,29.51-17.38,57.27-34.3,27.92-16.42,55.61-34.05,57.13-35.74,4.37-1.77,8.74-3.56,13.22-5,4.45-4.94,8.92-9.72,13.67-14.57l7.08-5.24Z"/></g></g><g class="cls-1"><g class="cls-2"><path class="cls-3" d="M-63.5,269.42a49,49,0,0,0,3.69-5.66c5.45-3,11.46-7,15.41-6.73,23.86-18.47,53-28.52,75.47-56,13.41-8.15,27.05-16.56,46.27-23.39l-8.51,12.48c-10,7.21-23.49,16.76-30.62,33.85C22.14,237.54,9.6,234.29-.44,257.61l-4.43,4.07c-8.56-1.66-14.52-4.26-17,4.22l2.78,6.48-6.76,6.19-.59-1.35-6.76,6.17-.93.84-2.89-6.84c-2.46,4.08-5.07,7.84-7.69,11.6-4.86-7-10.33-4-12-14.23A79.81,79.81,0,0,1-63.5,269.42Z"/><path class="cls-3" d="M-.44,257.61c10-23.32,22.58-20.06,38.66-33.6,7.12-17.09,20.61-26.64,30.62-33.85l8.51-12.48,2.3-2.2a73.75,73.75,0,0,0,6.08,5.71c1.4-10.47,9.7-10.72,10.76-17.63,5-2.94,10.05-6.46,14.9-9.74,19.09-17.15,35.55-17.92,49.06-36.89,11.62-2.35,23-22,36.06-27.13l7.51-7.7,1.89-6.35c12.5-12.19,25.29-24.52,37.66-37a47.51,47.51,0,0,0,4.6,5.09l.74,11.08c-2.39,1.5-3.29,4.43-4.76,7l-7.5,7.85-12.1,12.48L207.72,95l-.53,12.33-5.5,5.62c-5.09-3.66-8.31,5.63-13.51,6.41-1.74,2.72-3.71,5.67-5.62,8.08l-9.32,4.94c-8.69,1.39-13.21-4.8-17,2.83-3.79,1.36-2.82,6.73-5.18,9.59-9.36,4-4.53,7.46-6,10.8l-9,8.85c-6.7,1.73-9.7,4.67-12.71,7.61l-7.62,7.47c-1.1-.87-2.13-2.27-3.38-3.45-1.07,2-2.53,3.91-3.6,5.91-5.6,4.59-10.89,9.14-16.31,13.36a69.1,69.1,0,0,1-6.08-5.7c-7,3.79-2.68,9.29-3.75,12.72l-4.41,4.23-1.16,1.1-9,4.35L51.31,228l-7.89.22-6.75,6.33L24.16,242,13,252.4c-3.63,1.45-7.12,3.2-10.61,5A7.73,7.73,0,0,1-.44,257.61Z"/><path class="cls-3" d="M77.62,365.8c.33-.79.28-1.7.61-2.47,4.86-9.85,10.66-12.92,13.89-20.25l6.86.73c2.56-1.94,3.79-4.53,5-7.12.9-1.81,2-3.27,2.86-5.07a81.62,81.62,0,0,1,8.27-3L119.56,345c-3.49,3.74-6.58,7.61-9.66,11.48-3.95,2.75-7.65,5.28-11.43,8.36-1.94,1.82-1.55,5.77-2.5,9-3.46,6.13-7.76,3.46-15.37-1.34l-.74-1.68Z"/><path class="cls-3" d="M-1.34,369.94a76,76,0,0,0,.63-9.53c4.25-11.88,5.77-17.62,10.81-23.66,7.18-1.83,9.95-3.9,12.16-8.79l-1.32-3.05,7.85-7.2a10.63,10.63,0,0,1,2.53,2c4.87-2.6,9.39-5.25,14.1-8.26a47.23,47.23,0,0,1,6.43-3.65,15.32,15.32,0,0,1,1.62-3.91l2.14-2,8.48-10.35c9.95,9.3,6.47-5.13,9.77-6.79,5.18-8.66,13.27-11,17.81-14.44l8.64-6.37,7.78-7.46c4.2,10.4,9.35-2.73,14.69-.16a27.6,27.6,0,0,0,5.12-.11l6.88-6.61c1.1-3.48-.57-9.12,3.28-10.46a47,47,0,0,0,7.1,4.64c2.35-2.32,4.47-4.39,7.63-5.06l2.12-2.08,1.29-8.06c3.08-.12,6.56-.15,9.89-.5a20.3,20.3,0,0,0,1.31-3.72c5.27-4.22,10.58-8.39,15.66-13l3.28-3.29,3.91,7.78c4.54,1.3,8.89-.63,12.4-5.61l3.27,6.47-3.83,5.78c-6.62,5.2-5,11.9-7.71,15.07l-1.18,1.17-6.94-.45c-6.36,2.86-5.51,11.71-8.2,17.74l-2.38,2.35-12.61,5.12-4.51,4.44c-10.52,3.56-11.48,10.27-11.82,14a13.67,13.67,0,0,1-4.14,1.57l-7.76-1.7c-5.93,1.39-2.68,11.23-6.1,15l-8.33,3.66c-3.23-.25-6.54,0-10,0-2.3,1.73-.39,8.07-4.17,8.84a76.3,76.3,0,0,0-7.46-2c-6.19,2.95,1.87,7.82-2.08,13.43l-4.57,4.28.77,1.68-4.56,4.28,3.8,12.21c-3.22,7.33-9,10.4-13.89,20.25l-5.85-13.17-2.55-1.91C68,348,66.38,348.13,65,348c-2.69-9.9,3.71-9.23,3.54-17.2-.72-3.15-1.45-6.29-2.42-9.21a44.77,44.77,0,0,0-5.23-4.16A68.91,68.91,0,0,1,53.46,322L37.22,337c-2.59.95-2.38,4.54-3.08,7.57,4.55,8.18,12.87,1,15.39,12.95-10.68,4.13-16.31,7.4-21.79,13.38-5.3,2.48-10.59,5-15.73,7.81L8.38,382a79.6,79.6,0,0,0-6.83-5.2Z"/><path class="cls-3" d="M122.94,249.36l7.25-9.37,4.45-4.37c1,0,1.89-.39,2.9-.43l9.43-4.88c2.66-1.66,4.7-6.06,7.62-5.07,3.7-1.68,7-3.48,10.56-5.5l4.85-7.18-6.81-7.38-1.45-2.93a68.83,68.83,0,0,1-6.22-5.52,25.55,25.55,0,0,1,.73-5.55l4.45-4.36,5.59-5.54a40.26,40.26,0,0,0,4.36,2.45l9.58-11.56,1.59.37a17.87,17.87,0,0,0,3.14-.72c4-10.81,7-13.82,10-16.85,5.26,5.44,8.2,1.52,9.06-2.27a92.53,92.53,0,0,0,5.68-8.17c-1.24-1.68-2.7-3.14-4.09-5.14l-2.25-7c2.6-3.14,4.79-6.37,7-9.61,1.15-6.56,4.68-7.23,5.46-12.46l5.88-1.62,2.85-7.32a19.44,19.44,0,0,0,3.83.5l6.44-6.6,3.07-7.55c6.52-3.81,8.39-8.26,12.22-5.84l5.49-5.73-2.95-11.25,3.42-3.58L261.93,72l3.21-3.35c-1.52-7.3,3.23-9.79,6.48-13.7L269,47.72c2.11-2.7,4-5.72,5.91-8.17l7.27-5.74c.27-.79.15-1.64.43-2.45l14-15,.73-8.25a15,15,0,0,0,4.94-.3L307.79,2a54.41,54.41,0,0,1,6.33-4.27l9.28-8L327-4.17C326.9,2,322.85,6.4,318.42,5.12l-4.33,14.09,7-.55C329.38,2.39,339.88,13.35,352.2,2c.91,6.54-5.18,7.64-5.18,12.68l-16.4,17.77a25.19,25.19,0,0,1-2.32,5L336,50.62A86.39,86.39,0,0,0,343.56,45c3.54-9.28,5.69-10.7,9.59-7.9l4.34-14.28c3.95-.3,4.57,4.55,8.26,5L368,25.39c2.08,0,28.46-23.05,54.66-46.86C449-45.1,475-69.56,477-69.74c3-1.42,5.88-3.12,8.48-4.61A90.65,90.65,0,0,1,493.95-79c8-6.68,7.26-24.43,19.09-17.58l-.61,10.5c-4.55,2.2-2.57,8.16-2.51,10.66-1.4,5.75,3,9.93,1.06,13.71-4,3.65-8,7.29-11.83,11.22l-8-.61c-2.33-3.85-29,20.59-56,45.49S381,44.93,378.29,45.84c-7.74,2.92.67,8.8-2.35,14.62l-5.07,10.07-3.23,3.53L359,81.3c-6-5.08-9.55-6.75-11.67-2a59.76,59.76,0,0,1-8.49,4.1l-1-10.87,3.47-3.71c-.33-9.62-3.91-11.26-6.73-14.22-1.72,2.81-3.84,5.58-5.55,8.42l-12.2,13-3.17.93a46.44,46.44,0,0,0-6.83.31,15.48,15.48,0,0,0-1.33,13.34,88.88,88.88,0,0,0-9.62,5.13c.12,4.82-1.33,8.81-4.06,11.18a52.16,52.16,0,0,1-7.06.47c-1.68,4.23-3.37,8.47-5.23,12.4l-7.1,3c-5.72,3.51.53,10.33-2.61,14.61L261,144,254,120.8c-2.44,8.88-6.78,10.89-14,9.44l-4.4,4.52c-.36,1.34-.89,2.38-1.48,4-2.6,1.18-5.42,2.6-8.41,3.71l3.19,6a77.67,77.67,0,0,1-3.9,8.91c1.51,2.87-3,4.53-5.67,8.27l3.17,6.09c-3.25,4.74-6.51,9.46-9.62,14.51-3.17.76-6.34,1.5-9.28,2l-4.33,11.67c-4.41,2.47-8.66,5.27-12.9,8.06L183,211.3c-5.08,4.61-10.39,8.79-15.66,13a20.3,20.3,0,0,1-1.31,3.72c-3.33.35-6.81.38-9.89.5l-1.29,8.06-2.12,2.08c-3.16.67-5.28,2.74-7.63,5.06a47,47,0,0,1-7.1-4.64c-4.2,11.41-7.08,14.1-10.15,17.06a27.6,27.6,0,0,1-5.12.11A67.23,67.23,0,0,0,122.94,249.36Z"/><path class="cls-3" d="M157,285.84c.33-8.1-1.18-14.84,1.51-18l4.51-4.44,4.62,9.51c-2.61,4-5,7.83-7.47,12.19A18.37,18.37,0,0,0,157,285.84Z"/><path class="cls-3" d="M199.14,237.1l5.67-5.7,9.88-14.31,8-8.07,7.81-7.84,10.69,10.24c1.15-4.05,2.33-8.74,3.68-13.07-.4-3.53-.56-7.29-.71-11.06l6.8-7,2,.39,11.18-21.3a23.82,23.82,0,0,0,2.87,2c3.9-1.55,7.58-2.86,11.31-4.74,1-4.94,1.87-9.38,2.66-14.65,4.62,1.11,9.31,1.63,13.77,2.41-.62,5.59-1.41,10.88-1.8,16.25a101.81,101.81,0,0,1-9.69,5.16c-3.09,5.15-6.35,10-9.63,14.81L268,186.43c0,3-.07,6.46-.11,9.45-2.37,2.43-4.49,4.61-7.7,5.44a81.9,81.9,0,0,1-7.69,5.43l-9.65,7.89c-4.13,3.19-8.27,6.36-12.23,9.88-7.91,8.41-15.43,16.93-23.17,25.69a2.55,2.55,0,0,0-2-.43Z"/><path class="cls-3" d="M202.08,222.43l3.83-5.78,8.78.44-9.88,14.31C202.63,227.75,204.26,224.64,202.08,222.43Z"/><path class="cls-3" d="M199.23,199.94l4.33-11.67c2.93-.5,6.1-1.24,9.28-2,3.11-5.05,6.36-9.78,9.62-14.51l20.81-9.54a16.94,16.94,0,0,0,.51,4.38L236.5,176c-2.61,4.63-5.6,9.23-8.42,13.47l-13.27,4.07-12.12,9.7C200.2,201.89,199.72,200.92,199.23,199.94Z"/><path class="cls-3" d="M229.75,192.72l11.59-7.42a25.73,25.73,0,0,1,2.86,2c.15,3.77.32,7.53.71,11.06-1.35,4.33-2.53,9-3.68,13.07l-10.69-10.24C230.49,198.31,230,195.36,229.75,192.72Z"/><path class="cls-3" d="M279.53,119.84c1.86-3.93,3.55-8.17,5.23-12.4a52.16,52.16,0,0,0,7.06-.47c2.73-2.36,4.18-6.35,4.06-11.18a88.88,88.88,0,0,1,9.62-5.13,15.48,15.48,0,0,1,1.33-13.34,46.44,46.44,0,0,1,6.83-.31l3.17-.93,2.46,4.35c-.14,18.68-11.86,25.58-23.07,31.83l-3.52,15.55-12.34,12.93-.86-1.57Z"/><path class="cls-3" d="M259.63,24.44l-1.57-2.8,2.79-10.35,4.27-4.54C267.3,4.9,262.55,1,270-3l2.24-2.4L280.36-12l6,1,6.29-6.72c3.94-5.73,7.71-11.16,11.2-17,4.28-2.65,8.38-5.63,12.49-8.6,1.15-2.07,26.15-26.14,50.82-51,24.83-24.59,49.24-50.09,50.36-52.21a36.09,36.09,0,0,0,2.34-5.22c6.72-5.57,13.15-11.59,19.63-17.56l5.61,8.41c-3.53,4.62-7.08,9.78-10.43,14.68-3.22,2.75-6.5,5.4-9.56,8.38-.8,2-25,27.55-49.66,52.29-24.48,25-49.23,49.23-50,51.34l-5.9-.6L301.47-15.12a41.05,41.05,0,0,1-6.29,1.72,49,49,0,0,1-.24,5.23l-4.28,4.58L279.86,7.94c-5,5.82-9.58,11.77-14.44,17.86l-2,2.14C261.37,27.56,260.5,26,259.63,24.44Z"/><path class="cls-3" d="M8.38,382,12,378.74c5.14-2.83,10.43-5.32,15.73-7.81a6.82,6.82,0,0,0,.47-2.81c4.91-2.61,9.43-5.35,14.21-8.31,2.11-2.9,5.26,2.78,7.11-2.26a52.25,52.25,0,0,0,5.38,4.57c-2.88,13.56-8.46,16.35-17,24.67l-8,.2c-1.26,2.58-2.89,7.42-5.8,5.33-1-11-5.19,2-8.54-1.21A72.33,72.33,0,0,1,8,384.24Z"/><path class="cls-3" d="M80.61,372.55c7.61,4.8,11.91,7.47,15.37,1.34.95-3.28.56-7.23,2.5-9-1.94,1.82-1.55,5.77-2.5,9C92.52,380,88.22,377.34,80.61,372.55Z"/><path class="cls-3" d="M79.87,370.86l.74,1.68Z"/><path class="cls-3" d="M119.56,345l-4.44-16.44,14.53-12c6.69,3.19,14.64-4.45,15.66-12.64,4.26-6.51,4-10.64,6-12.47l5.74-5.56a18.37,18.37,0,0,1,3.17-.71L183.36,274l12.12-10,10-14.27a2.55,2.55,0,0,1,2,.43c7.74-8.76,15.26-17.29,23.17-25.69,4-3.51,8.1-6.69,12.23-9.88l9.65-7.89a81.9,81.9,0,0,0,7.69-5.43c3.21-.83,5.33-3,7.7-5.44,0-3,.07-6.45.11-9.45l5.65-5.81c3.28-4.83,6.54-9.65,9.63-14.81a101.81,101.81,0,0,0,9.69-5.16c.39-5.37,1.18-10.65,1.8-16.25a86.46,86.46,0,0,0,4.75-7.45l8.87-9.31c8.53-4,11.27-6.37,12.1-10.2l17.89-19.1,12.81.75c-1.08,6.64-3.53,12.25-8.72,16.32-.45,4.47-.68,8.71-1.38,13.45-2.92,4.14-7.94,6.51-7.46,15.37-4.52,1.28-7.27-13.65-11.58-4.7-2.63,1.3.92,3-.37,5.35L311.13,158c-2.29,1.91-4.85.63-7.12.52l-5.63,5.92,5,9.13,8.38-4.32a78.24,78.24,0,0,1,3,8.79L308.07,185c-3.26-.54-6.34-.78-9.77-1.64-4.86,12.91-19.11,13.75-16.59,28.87-8.47,1.33-10.17,13.38-10.27,27.25Q205.35,306.67,138.13,371c-1.78-3.1-3.65-5.65-5.67-8.51,3.64-8.81,2.22-15.62-1.59-21.59-2.32,1.75-5,3.41-7.76,5.06.57,4.27.9,8.76,1.05,12.91l-14.26-2.36C113,352.61,116.07,348.74,119.56,345Z"/><path class="cls-3" d="M96.5,163.56c-1.06,6.9-9.36,7.15-10.76,17.63a73.75,73.75,0,0,1-6.08-5.71C86.35,171.88,82.69,157.27,96.5,163.56Z"/><path class="cls-3" d="M202.77,67.19c5.88-11.31,22.87-23,30-35.9-.06-7.83,5.39-1.17,7.18-5,2.55-1.17,4.65-1.89,7-2.83L248,22.25c1.09-5.1,3.68-8.76,12.83-11l-2.79,10.35,1.57,2.8c-3.35,3-7.09,5.94-10.61,8.62l-5.43,5.67c-12.37,12.49-25.16,24.82-37.66,37L204,82.09l-7.51,7.7c-13,5.12-24.45,24.78-36.06,27.13-13.51,19-30,19.74-49.06,36.89,24-34,49.66-38.38,73.35-73.1,2.77-1.35,3.82-11.27,7.42-5.13C195.73,72.43,199.25,69.8,202.77,67.19Z"/><path class="cls-3" d="M265.11,6.76C267.3,4.9,262.55,1,270-3,262.55,1,267.3,4.9,265.11,6.76Z"/><path class="cls-3" d="M-65,318.44c3.52-5.5,7-11,10.44-16,3.72,2.8,6.54-2.07,9.14-8.18a12.65,12.65,0,0,1,.22-2.56,13.47,13.47,0,0,0,.45-2.76c3.48-1.69,7-3.39,10.58-4.76l.93-.84c9.61,3.57,5.86-3,7.35-4.82l6.76-6.19c4.72-3.37,9.45-6.76,14.26-10.69l4.43-4.07a7.73,7.73,0,0,0,2.84-.24c4.76,5.63,9-1.13,10.61-5L24.16,242c8,.15,9-2.73,10.2-5.26l2.32-2.19,6.75-6.33,7.89-.22c-.55,2.44-1,5.2-1.36,8L36.64,248.4l-6.76,6.34a68.47,68.47,0,0,1-8.27,3c-6.25,3-4.79,7.8-7.2,9.07a54,54,0,0,1-3,7.48l-7.86.08c-11,6.29-16.67,20.51-28.25,21.62l-6.82,6.15c-3.62,3.71-7.1,7.77-10.58,11.83-2.41-1.13-4.92-1.72-7.33-2.87C-54.28,314-58.46,323.45-65,318.44Z"/><path class="cls-3" d="M57.67,361.49c-1.57-9,4.64-9.5,7.31-13.46,1.4.11,3.05,0,4.85.22l2.55,1.91,5.85,13.17c-.33.78-.28,1.68-.61,2.47C71,364.83,64.41,362.92,57.67,361.49Z"/><path class="cls-3" d="M92.11,324.9l4.57-4.28a20,20,0,0,1,4.36-1.72l5.81,12.7c-.9,1.8-2,3.27-2.86,5.07l-11.12-10.1Z"/><path class="cls-3" d="M-101.84,391.24a52,52,0,0,1,1.15-5.24,65.12,65.12,0,0,1,7.34-4.09l-6.28-12.8c3.88-3.89,5.94-13.2,11.63-12.54,1.81-3.47,3.48-7.27,4.92-10.88a74.9,74.9,0,0,1,7.14,2.67l12.54-11c6.26-9.87,13.8-16.63,21.33-23.38,3.49-4.06,7-8.12,10.58-11.83l6.82-6.15c11.58-1.11,17.24-15.33,28.25-21.62l7.86-.08c9,6.94,9.69-1.25,12.18-4.57A32.79,32.79,0,0,0,29,267c9.3,2.26,10.54-3.19,8.88-8.34l2.35-2.19c4.29-4.51,8.44-9.35,12.58-14.18l3.86,1.16c1.5,7.68,2.5,7.68,3.67,8,3.43-1.29,3.24-8.3,2.72-11.63,4.25-9.73,12.12-17.36,19.27-20.8a97,97,0,0,1,8.69-5.95c4.21-1.14,3.64-8.77,4.4-11.43a49.24,49.24,0,0,0,6.38-3.71c4-4.33,8,1.89,13-3.44,4.58-1.12.55-7.32,2.18-8.91a116.58,116.58,0,0,1,9.59-7l8.17-3.65c2.13-4-1.82-7.88,1.34-10.51l9-8.85,7.6-7.56a39.47,39.47,0,0,1,6.23-1.36l2.28,4.53c7.8-2.44,5.47-8.4,7.94-10.38l1.15-1.16c11,1.69,11.81-6.94,12.22-12.23,1.91-2.4,3.88-5.36,5.62-8.08,5.21-.78,8.43-10.07,13.51-6.41l5.5-5.62,6.1-1.83L222,96.6l5.12-9.66,8.19-4,3.93-8.53,7.5-7.87c2.11-.72,4-1.22,5.88-1.68l2.95,11.25-5.49,5.73c-3.83-2.42-5.7,2-12.22,5.84l-3.07,7.55-6.44,6.6a19.44,19.44,0,0,1-3.83-.5l-2.85,7.32-5.88,1.62c-.79,5.23-4.31,5.89-5.46,12.46-2.19,3.24-4.39,6.47-7,9.61l2.25,7c1.39,2,2.85,3.46,4.09,5.14a92.53,92.53,0,0,1-5.68,8.17c-.86,3.79-3.8,7.71-9.06,2.27-3,3-6,6-10,16.85a17.87,17.87,0,0,1-3.14.72l-1.59-.37-9.58,11.56a40.26,40.26,0,0,1-4.36-2.45l-5.59,5.54-4.45,4.36a25.55,25.55,0,0,0-.73,5.55,6.53,6.53,0,0,0-3.15.67l-5.16-4.14-1.39,10.56-7.71-1.64-13.29,13-3,7.31a33.09,33.09,0,0,1-5.49,2.86l-.62-1.31a70.72,70.72,0,0,0-7.36,4.65l-2.11,6.36a71.53,71.53,0,0,1-7.43-2L83.1,248.15c-1.11,4.89-3,9.6-6.79,6.51-3.21,2.57-6.35,4.53-9.71,6.74-5.22,7.77-11.42,5.94-16.63,13.69a67,67,0,0,0-7.34,4.49c-2.16-.35-4.54-2-7.14,1.93-1.3,4.56-2.75,8.82-4,12.8a69.26,69.26,0,0,1-7.32-2.3L15,300.47l-3.46,10.3L6,308.7a45.88,45.88,0,0,1-6.4,3.5c-1.36-3.95-4.14-.46-7,2.13l-6,12.14A91.35,91.35,0,0,1-22,331.78c-2.37,4.48-5.52,1.65-8.88,1.37l-5.36,13.78a7.77,7.77,0,0,1-2.84.18c-8.55.56-6.61,6.86-9.25,8.31l-1.19,1.06c-1.09-1.86-2.41-3.5-3.63-5.72-2.8,1.08-5.57,2.19-8.13,3,4.22,13.66-4.42,9-6.63,14.74-11.22-10.36-12.62,11.05-21.69,19l1.92,4.89c-3.48,2.59-7.32,5-10.94,7.24Z"/><path class="cls-3" d="M14.42,266.78c2.41-1.26.95-6,7.2-9.07a68.47,68.47,0,0,0,8.27-3l6.76-6.34L50,235.93c.4-2.77.81-5.53,1.36-8L68,212.08l9-4.35,1.16-1.1,4.41-4.23c5.43-1.35,8-2.36,10.25-2.6a16.78,16.78,0,0,1-.41-4.42c5.42-4.23,10.7-8.78,16.31-13.36L117,185.6c-1.62,1.59,2.41,7.79-2.18,8.91-4.94,5.33-9-.89-13,3.44a49.24,49.24,0,0,1-6.38,3.71c-.76,2.66-.19,10.29-4.4,11.43A97,97,0,0,0,82.37,219c-7.15,3.44-15,11.07-19.27,20.8.52,3.33.71,10.33-2.72,11.63-1.17-.34-2.17-.35-3.67-8l-3.86-1.16c-4.14,4.84-8.28,9.68-12.58,14.18l-2.35,2.19c1.66,5.14.41,10.6-8.88,8.34a32.79,32.79,0,0,1-5.42,2.69c-2.49,3.32-3.2,11.51-12.18,4.57A54,54,0,0,0,14.42,266.78Z"/><path class="cls-3" d="M68,212.08l9-4.35Z"/><path class="cls-3" d="M82.65,202.4c1.08-3.43-3.21-8.94,3.75-12.72a69.1,69.1,0,0,0,6.08,5.7,16.78,16.78,0,0,0,.41,4.42C90.64,200,88.08,201,82.65,202.4Z"/><path class="cls-3" d="M128.73,296.72c3.42-3.79.17-13.63,6.1-15l7.76,1.7a13.67,13.67,0,0,0,4.14-1.57c.34-3.68,1.29-10.39,11.82-14-2.69,3.12-1.18,9.87-1.51,18l-5.74,5.56c-1.93,1.84-1.71,6-6,12.47-3-3.38-6.07-6.19-9.29-9.35A54.16,54.16,0,0,1,128.73,296.72Z"/><path class="cls-3" d="M108.79,182c1.07-2,2.52-3.92,3.6-5.91,1.25,1.18,2.27,2.58,3.38,3.45L117,185.6Z"/><path class="cls-3" d="M167.67,272.95c1.74-8,5.63-9.39,8.64-13.32l-.64-1.31L178,256l.66-12.27c5.1-1.14,9.26-10.53,15.67-6.2,2.67-3.17,1.09-9.88,7.71-15.07,2.18,2.21.54,5.32,2.73,9l-5.67,5.7,6.34,12.67-10,14.27-12.12,10L160.2,285.14C162.67,280.77,165.06,277,167.67,272.95Z"/><path class="cls-3" d="M163.06,263.43l12.61-5.12.64,1.31c-3,3.93-6.9,5.33-8.64,13.32Z"/><path class="cls-3" d="M145.13,155.61c1.43-3.34-3.39-6.78,6-10.8,2.37-2.86,1.39-8.22,5.18-9.59,3.74-7.63,8.26-1.44,17-2.83l-2.9,7.29-1.15,1.16c-8.19-1.06-6.81,4.37-10.22,5.85a39.47,39.47,0,0,0-6.23,1.36Z"/><path class="cls-3" d="M205.42,97.35,207.72,95l16.86-12.83,12.1-12.48,7.5-7.85c1.47-2.52,2.37-5.45,4.76-7l-.74-11.08a47.51,47.51,0,0,1-4.6-5.09L249,33.06c3.52-2.68,7.26-5.61,10.61-8.62l3.76,3.5,2-2.14c4.86-6.09,9.44-12,14.44-17.86,1.78,7.57.43,9-.71,17.21L271,29.34c1.35,3,2.65,6.63,3.94,10.21C273.09,42,271.15,45,269,47.72l-13,13.58-3.42,3.58c-1.89.47-3.77,1-5.88,1.68l-7.5,7.87L235.31,83l-8.19,4L222,96.6l-8.73,8.93-6.1,1.83C206.75,103.85,206.09,100.6,205.42,97.35Z"/><path class="cls-3" d="M269.81,137.43c3.14-4.28-3.11-11.1,2.61-14.61l7.1-3,0,19.34Z"/><path class="cls-3" d="M271,29.34l8.13-4.19c-1.37-7.52,7.43-12.42.71-17.21l10.8-11.53,4.28-4.58,8.56,2.82c-.76-3.2-1.51-6.37-2-9.77L319.6-34.78l5.9.6c.77-2.11,25.52-26.39,50-51.34,24.61-24.74,48.86-50.27,49.66-52.29,3.06-3,6.34-5.63,9.56-8.38l3.84,17.64c-1.49,1.58-26.5,26.72-51.74,51.18l-52,50.12a40.68,40.68,0,0,1-5.86-1.14c-3.21,9.52-4,13.88-5.54,18.09l-9.28,8A54.41,54.41,0,0,0,307.79,2l-5.43,5.79a15,15,0,0,1-4.94.3l-.73,8.25-14,15c-.27.81-.15,1.66-.43,2.45L275,39.55C273.66,36,272.37,32.38,271,29.34Z"/><path class="cls-3" d="M228.08,189.51c2.82-4.25,5.81-8.84,8.42-13.47l7.27-9.44L251,180.33l-6.8,7a25.73,25.73,0,0,0-2.86-2l-11.59,7.42Z"/><path class="cls-3" d="M219.28,165.68c2.69-3.74,7.18-5.4,5.67-8.27a77.67,77.67,0,0,0,3.9-8.91c7.09-2.83,7.67-7.85,5.22-9.76.59-1.58,1.12-2.62,1.48-4l4.4-4.52c7.23,1.45,11.57-.55,14-9.44L261,144l-3.28,3.34-14.49,14.86-20.81,9.54Z"/><path class="cls-3" d="M280.35,140.75l12.34-12.93c2.13,3.21,4.5,6.18,6.87,9.15a86.46,86.46,0,0,1-4.75,7.45c-4.46-.78-9.15-1.3-13.77-2.41Z"/><path class="cls-3" d="M256.05,61.3l13-13.58,2.57,7.19c-3.25,3.9-8,6.39-6.48,13.7L261.93,72Z"/><path class="cls-3" d="M292.7,127.82l3.52-15.55c11.21-6.25,22.94-13.15,23.07-31.83l-2.46-4.35,12.2-13,3.37,5.87,5.44,3.64,1,10.87a59.76,59.76,0,0,0,8.49-4.1L355,92.59c1.2-3.79,2.64-7.82,4-11.29l8.62-7.25c1,4.94,1.79,9.56,2.82,13.94l-4.7,7.53c-3.53-.2-6.58-.92-9.87-1.38l-4.66,5-12.81-.75L336,94c-7.67,6.2-14.08,10.63-17.86,19.08l2.44,4.36c-.82,3.83-3.57,6.22-12.1,10.2L299.57,137C297.2,134,294.83,131,292.7,127.82Z"/><path class="cls-3" d="M318.09,113.1c3.79-8.45,10.2-12.88,17.86-19.08l2.47,4.34-17.89,19.1Z"/><path class="cls-3" d="M305.5,90.66a15.48,15.48,0,0,1,1.33-13.34,46.44,46.44,0,0,1,6.83-.31,46.44,46.44,0,0,0-6.83.31A15.48,15.48,0,0,0,305.5,90.66Z"/><path class="cls-3" d="M329,63.05c1.72-2.84,3.84-5.61,5.55-8.42,2.83,3,6.4,4.6,6.73,14.22l-3.47,3.71-5.44-3.64Z"/><path class="cls-3" d="M318.42,5.12C322.85,6.4,326.9,2,327-4.17L336.9-15c1.09-1,26.39-24.31,51.44-48.39,25.2-23.83,50-48.54,51.18-49.44l-1-15.74,6.15-2.46,12.88-17c3.86-2.41,7.17-6.26,10.25-9.84l8.23-1.81c3.49-3.58,9.67,3.21,17.36-5.33,2.83-2.83,2.82-7.5,4.4-15.61-4.32-6.84-2.74-9.73,3.69-14.25a43.92,43.92,0,0,1,.4-5.16,88.94,88.94,0,0,1-7.85-13.55l11.48-5.81c1.79-3.7,3.6-7.39,5.19-11.35l6,2.77a83.59,83.59,0,0,0,8.28-4.77l2.57,12.1-2.4,15.42c2.45,7.45.93,19.12,9,21.46l4.78,12a58.66,58.66,0,0,1,9.67,5.65l2.22-2.63,10.89,7.32-1.58,11.75L562-141.9c-.18,3.84-.34,7.15-.71,10.73-2.53,4-4.83,7.81-7.55,11.56a23.43,23.43,0,0,1-.28,5.53l-.24,5-10.9-1.61-2.11-.1c-1.49,4.35-3.37,8.74-4.91,13.06-3.52,6.17-7.25,12.06-11,17.93l-4.37,2.52-10,1.86c-.06-2.5-2-8.45,2.51-10.66l.61-10.5C501.21-103.45,501.9-85.7,493.95-79a90.65,90.65,0,0,0-8.45,4.67c-2.59,1.49-5.45,3.19-8.48,4.61C475-69.56,449-45.1,422.68-21.47,396.49,2.34,370.1,25.4,368,25.39l-2.29,2.49c-3.68-.49-4.31-5.34-8.26-5l-4.34,14.28c-3.9-2.81-6-1.38-9.59,7.9A86.39,86.39,0,0,1,336,50.62l-7.68-13.23a25.19,25.19,0,0,0,2.32-5L347,14.65c0-5,6.08-6.14,5.18-12.68-12.32,11.37-22.82.42-31.07,16.68l-7,.55Z"/><path class="cls-3" d="M-10.47,378.15l9.13-8.2,2.89,6.85A79.6,79.6,0,0,1,8.38,382L8,384.24c-1.39-2.53-4.29,2.45-11.42,3.66a8.56,8.56,0,0,1-2.89.23Z"/><path class="cls-3" d="M53.46,322a68.91,68.91,0,0,0,7.41-4.56,44.77,44.77,0,0,1,5.23,4.16c1,2.92,1.7,6.06,2.42,9.21.16,8-6.24,7.3-3.54,17.2-2.66,4-8.88,4.45-7.31,13.46-.87.32-1.89.3-2.77.64a52.25,52.25,0,0,1-5.38-4.57c-2.52-11.94-10.84-4.76-15.39-12.95.71-3,.49-6.62,3.08-7.57Z"/><path class="cls-3" d="M88.32,330.86l4.56-4.28L104,336.68c-1.23,2.6-2.46,5.18-5,7.12l-6.86-.73Z"/><path class="cls-3" d="M106.22,309.22c3.77-.77,1.87-7.11,4.17-8.84,3.46,0,6.78-.25,10,0l8.33-3.66a54.16,54.16,0,0,0,7.29-2.2c3.22,3.15,6.3,6,9.29,9.35-1,8.19-9,15.84-15.66,12.64l-14.53,12a81.62,81.62,0,0,0-8.27,3L101,318.91a20,20,0,0,0-4.36,1.72c4-5.62-4.11-10.49,2.08-13.43A76.3,76.3,0,0,1,106.22,309.22Z"/><path class="cls-3" d="M199.23,199.94c1.12.82,2.18,2.2,3.46,3.34l12.12-9.7a13.21,13.21,0,0,1,.35-2.79l12.92-1.28,1.67,3.21c.29,2.64.74,5.59.79,8.47L222.73,209l-8,8.07-8.78-.44-3.27-6.47c-3.51,5-7.87,6.91-12.4,5.61L186.33,208C190.57,205.22,194.81,202.42,199.23,199.94Z"/><path class="cls-3" d="M159,146.69l11.37-7-1.15,1.16c-2.47,2-.14,7.94-7.94,10.38Z"/><path class="cls-3" d="M243.77,166.6a16.94,16.94,0,0,1-.51-4.38l14.49-14.86L261,144l8.79-6.59,9.68,1.74.86,1.57L281,142c-.78,5.27-1.67,9.71-2.66,14.65-3.74,1.88-7.41,3.19-11.31,4.74a23.82,23.82,0,0,1-2.87-2L253,180.72l-2-.39Z"/><path class="cls-3" d="M-89.56,387.53c9.07-8,10.47-29.38,21.69-19,2.21-5.69,10.86-1.08,6.63-14.74a6.74,6.74,0,0,1,.48-2.77l7.65-.24c1.22,2.22,2.54,3.86,3.63,5.72l1.19-1.06c2.65-1.45.71-7.75,9.25-8.31a7.77,7.77,0,0,0,2.84-.18l5.36-13.78c3.37.28,6.52,3.12,8.88-1.37a91.35,91.35,0,0,0,8.57-5.31l6-12.14c2.83-2.59,5.61-6.08,7-2.13A45.88,45.88,0,0,0,6,308.7l5.53,2.07L15,300.47,24.18,292a69.26,69.26,0,0,0,7.32,2.3c1.23-4,2.68-8.24,4-12.8,2.6-3.89,5-2.28,7.14-1.93A67,67,0,0,1,50,275.09c5.21-7.76,11.41-5.92,16.63-13.69,3.36-2.2,6.51-4.17,9.71-6.74,3.79,3.09,5.68-1.62,6.79-6.51L98.8,233.08a71.53,71.53,0,0,0,7.43,2c1.08,12.42-7.15,14.55-11.46,20.61l-6.19,7.87-8.63,6.31c-4.77.66-2.11,8.68-7.62,11.46l1.53,3.35c-3.29,1.66.18,16.09-9.77,6.79,1.44-2.79,2.88-5.57,4.16-8.69L54.78,282l-10,13.67,8.64,8.14a15.32,15.32,0,0,0-1.62,3.91,47.23,47.23,0,0,0-6.43,3.65c-4.71,3-9.23,5.66-14.1,8.26a10.63,10.63,0,0,0-2.53-2l-7.85,7.2L22.26,328c-2.21,4.89-5,7-12.16,8.79-5,6-6.56,11.78-10.81,23.66l-9.44-.49a14.37,14.37,0,0,0-6.32-3.31l-5.73,5.15a18.84,18.84,0,0,1-3.58-1.5l-8.11,7.28c-5.1.31-10.33.28-15.53.23-5.67,6-13.33,10.32-17.71,17.94-5.69-3-11.69,7.9-20.51,6.71Z"/><path class="cls-3" d="M72.32,281.35c5.51-2.78,2.85-10.8,7.62-11.46l8.63-6.31,6.19-7.87c4.31-6.06,12.55-8.19,11.46-20.61l2.11-6.36a70.72,70.72,0,0,1,7.36-4.65l.62,1.31a33.09,33.09,0,0,0,5.49-2.86l9,5.18c2.13-11.3,9.83-18.85,13.35-13.09.84-3.26,1.44-6.25,2.44-9.17,1.78-2.71,3.8-5.66,5.74-8a6.53,6.53,0,0,1,3.15-.67,68.83,68.83,0,0,0,6.22,5.52l1.45,2.93,6.81,7.38-4.85,7.18c-3.55,2-6.86,3.81-10.56,5.5-2.92-1-5,3.41-7.62,5.07l-9.43,4.88c-1,0-1.87.4-2.9.43L130.19,240l-7.25,9.37a67.23,67.23,0,0,1-.17,6.9c-5.35-2.57-10.49,10.56-14.69.16l-7.78,7.46-8.64,6.37C87.12,273.69,79,276,73.84,284.7Z"/><path class="cls-3" d="M124.82,215.23l13.29-13,7.71,1.64-.94-8.28,2.33-2.28,5.16,4.14c-1.94,2.38-4,5.34-5.74,8-1,2.93-1.61,5.92-2.44,9.17-3.52-5.75-11.22,1.79-13.35,13.09l-9-5.18Z"/><path class="cls-3" d="M-12.66,328.18a50.38,50.38,0,0,1,7.13-1.79c4.62-6.14,8.71-6.56,12.73-.29a23.54,23.54,0,0,0,.13,4.16l-22.25,11.25Z"/><path class="cls-3" d="M54.78,282l13.46.75c-1.28,3.12-2.72,5.89-4.16,8.69l-8.48,10.35-2.14,2-8.64-8.14Z"/><path class="cls-3" d="M225.66,142.44a6.59,6.59,0,0,0,.32-2.79l8.09-.92c2.45,1.91,1.87,6.93-5.22,9.76Z"/><path class="cls-3" d="M301.65,25a27.38,27.38,0,0,0,5.18-.55c2.67,9.11-5.36,9.2-5.5,15.34l-5.4-3.7C297.9,32.52,299.87,28.93,301.65,25Z"/><path class="cls-3" d="M117,185.6l-1.23-6.05,7.62-7.47c3-2.94,6-5.88,12.71-7.61-3.17,2.63.79,6.47-1.34,10.51l-8.17,3.65A116.58,116.58,0,0,0,117,185.6Z"/><path class="cls-3" d="M205.48,249.77a2.55,2.55,0,0,1,2,.43A2.55,2.55,0,0,0,205.48,249.77Z"/><path class="cls-3" d="M170.33,139.68l2.9-7.29,9.32-4.94C182.14,132.74,181.29,141.37,170.33,139.68Z"/></g></g></g></mask></defs><title>letters</title><g class="cls-4"><path class="cls-5" d="M134.1,237.8v7.69q.86,38.69,8,54.42t30.5,15.73q23.16,0,30.6-17.2,4.47-10.18,4.47-34.39V30.77h69.69V262.92q0,42.54-14.38,67.43-24.34,42.08-87.83,42.08T89.94,338.38Q68.27,304.33,68.26,245.5V237.8Z"/></g></svg>