<svg id="Layer_1" data-name="Layer 1" xmlns="http://www.w3.org/2000/svg" viewBox="0 0 345.6 403.2"><defs><style>.cls-1{fill:#ffff43;}</style></defs><title>letters</title><path class="cls-1" d="M25.55,34.84H94.11c0,23.67-.66,47.19,2,70.72,3.2,28.19-1,48.56-6.4,76.09,28.56-21.43,46.48-50.93,72.59-74.33,10.12-9.07,15.64-20.17,23.38-31,10.69-15,24.68-28,37.27-41.45H313c-22.51,22.56-43.73,51-73.55,63.47-19.46,8.14-24.21,12-33,31.16-9,19.6-23,32.25-41.12,43.36,10.27,24.41,31.12,31.54,45.86,52,11.55,16,24.42,30,36.78,45.39,25.36,31.51,48.13,65.55,72,98.18h-89.6c-16.88-24-31.81-54.5-53.66-74.23-8.22-7.42-15-10.47-21.4-20.57-12-18.93-14.79-41.84-19.46-63.26-15.83,10-27.29,28.55-39.18,42.52-5.6,37.74-2.63,77.4-2.63,115.53H25.55c0-54.78-5.57-114.66,14-166.76,4.93-13.1,8.66-22.39,4.53-36.46-3.89-13.23-9.58-24.12-11.81-37.9C27.23,96,25.55,66.59,25.55,34.84Z"/></svg>