<svg id="Layer_1" data-name="Layer 1" xmlns="http://www.w3.org/2000/svg" viewBox="0 0 345.6 403.2"><defs><style>.cls-1{fill:#ffff43;}</style></defs><title>letters</title><path class="cls-1" d="M233.85,34.84H334.13V368.36H269.19c-2.47-19-10.11-35.54-7.68-54.84,2.56-20.34,7.68-37.17,7.68-58,0-35.79,2-72-3.61-107.38.21-11.38,4-21.28-1.26-32-5.91-12-10.94-24.37-10.83-38.29C247.56,126,242,173.32,233.07,221.22c-4.22,22.66-10.7,43.94-18.12,65.76-4.49,13.18-8.76,25.55-8.85,39.64-.1,14.41,2.23,27.19.35,41.74H138.71c-10.43-46.54-22.08-93-31.6-139.67-4.61-22.59-12.46-45.09-15.85-67.86-3.91-26.29-3.8-48.69-15.08-73.15.41,4.9,1.93,8.86,3.43,15.83s1,17.8-.78,27.41c-8.58,42.45-9.14,79-3.82,121.63.91,7.26.4,15.42,2.21,22.52,2.28,9,8.44,16.26,10.7,25.12,5.61,21.94-8,46.49-11.52,68.16H11.47V34.84H112.89q3.52,23,7.21,45.94c2.57,16,5.8,32.1,7.88,48.22,2.38,18.46-.89,36.81.85,55.34,1.76,18.78.73,43.46,8.63,60.8,5.64,12.37,14.74,19.54,18.29,33.37,1.21,4.73,7.89,38.49,13.68,32.93,2.93-25.22,3.11-45.18,14.44-67.65C194.33,223,204.55,196.2,208,173.32c3.14-20.88,3.16-40.55,8-61.39Z"/></svg>