<svg id="Layer_1" data-name="Layer 1" xmlns="http://www.w3.org/2000/svg" viewBox="0 0 345.6 403.2"><defs><style>.cls-1{fill:#ffff43;}</style></defs><title>letters</title><path class="cls-1" d="M25.91,199.44C30.53,139.35,52.39,89,106.31,56.3,152.09,28.52,222.38,38,262.49,74c36.31,32.55,54.26,73.28,57.16,119.48,2,32.47-7.59,64.9-24.93,93.57C281,309.77,282.15,328.54,300,347.94c3.12,3.4,8.72,5.82,2.12,11.88-5.77,5.3-8.9,2.69-12.62-1.62-17-19.7-39.92-16.47-58.11-8.05C144.82,390.23,52,331.53,33.17,246.5,29.75,231.08,24.53,215.82,25.91,199.44Zm45.24-2.16c0,17.82-1.11,32.36.24,46.67,2.53,27,11.41,50.7,33.55,69.17,27.64,23.06,59.2,20.22,90.87,17,6.27-.65,17.75,2.82,19.48-6.63,2.29-12.53,4.88-26-2.46-38.32-2.33-3.89-10-6.15-3.91-12.42s8.65.87,12.39,3.56c20.42,14.66,47.69,2.56,50.95-21.87,4.8-36,5.44-71.82-.22-107.66-4.76-30.12-18-54-47-68.39-22.29-11.05-45.24-3.17-67.68-6C115.16,67,82.52,102.3,74.2,139,69.51,159.72,72.91,180.19,71.15,197.28Z"/></svg>