<svg id="Layer_1" data-name="Layer 1" xmlns="http://www.w3.org/2000/svg" viewBox="0 0 345.6 403.2"><defs><style>.cls-1{fill:#ffff43;}</style></defs><title>letters</title><path class="cls-1" d="M102.31,71.18c16.38-10.93,37.51-15.2,56.58-14.83,25.87.5,51.62,5.34,73.26,21.07,9.79,7.12,15.82,15.78,21.78,26.21S285.3,132,280.65,139.85c-7.76,13.12-27.29,30.61-44.12,42.72-9.88,6.9-11.74,17.27-17.72,26.92-3.36,4.29-6.83,6.44-12.36,10.73q-11.29,8.78-15,20.49c-1.56,4.94,6.54,12.61,10.52,23H149.12c-10.29-16.2-14.13-29.93-6.83-45.56,4.27-9.14,3.12-21,12.24-29,5.26-4.45,9.83-6.67,18.85-11.12,7.3-3.51,14.61-7.34,19.35-11.51,6.18-9.46,18-16.57,25.7-23.61,11.8-10.83-15.1-22.54-22.06-27-10.69-6.89-21.83-12.2-35-12.2-12.1,0-25.9,4.31-32,15-5.32,9.32-9.77,19.65-9.44,31.21H63.49C64.92,119.77,75.06,87.78,102.31,71.18ZM128.8,290.47h58.33c-3.25,21.34,3.09,36.12,5.9,56.38H134.7C131.89,326.59,125.56,311.8,128.8,290.47Z"/></svg>