<svg id="Layer_1" data-name="Layer 1" xmlns="http://www.w3.org/2000/svg" xmlns:xlink="http://www.w3.org/1999/xlink" viewBox="0 0 345.6 403.2"><defs><style>.cls-1{fill:url(#radial-gradient);}.cls-2{fill:url(#radial-gradient-2);}.cls-3{mask:url(#mask);}.cls-4{fill:#ffff43;}.cls-5{filter:url(#luminosity-invert-noclip);}</style><radialGradient id="radial-gradient" cx="-968.8" cy="-115.22" r="192.07" gradientTransform="translate(-590.21 57.48) rotate(180) scale(0.71 1.29)" gradientUnits="userSpaceOnUse"><stop offset="0.33" stop-color="#fff"/><stop offset="0.35" stop-color="#fff" stop-opacity="0.91"/><stop offset="0.4" stop-color="#fff" stop-opacity="0.72"/><stop offset="0.45" stop-color="#fff" stop-opacity="0.55"/><stop offset="0.5" stop-color="#fff" stop-opacity="0.4"/><stop offset="0.55" stop-color="#fff" stop-opacity="0.28"/><stop offset="0.61" stop-color="#fff" stop-opacity="0.18"/><stop offset="0.68" stop-color="#fff" stop-opacity="0.1"/><stop offset="0.75" stop-color="#fff" stop-opacity="0.04"/><stop offset="0.84" stop-color="#fff" stop-opacity="0.01"/><stop offset="1" stop-color="#fff" stop-opacity="0"/></radialGradient><radialGradient id="radial-gradient-2" cx="-953.97" cy="-122.29" r="192.07" gradientTransform="translate(-579.75 62.25) rotate(180) scale(0.71 1.29)" xlink:href="#radial-gradient"/><filter id="luminosity-invert-noclip" x="-72.93" y="34.84" width="381.61" height="351.77" filterUnits="userSpaceOnUse" color-interpolation-filters="sRGB"><feColorMatrix values="-1 0 0 0 1 0 -1 0 0 1 0 0 -1 0 1 0 0 0 1 0" result="invert"/><feFlood flood-color="#fff" result="bg"/><feBlend in="invert" in2="bg"/></filter><mask id="mask" x="-72.93" y="34.84" width="381.61" height="351.77" maskUnits="userSpaceOnUse"><g class="cls-5"><ellipse class="cls-1" cx="93.64" cy="205.56" rx="169.07" ry="164.65" transform="translate(-122.95 141.44) rotate(-49.02)"/><ellipse class="cls-2" cx="93.64" cy="219.42" rx="169.07" ry="164.65" transform="translate(-133.42 146.21) rotate(-49.02)"/></g></mask></defs><title>letters</title><g class="cls-3"><path class="cls-4" d="M295.81,341Q294,332.84,294,310v-22.4q0-35.07-9.62-52.15t-32.7-26.36q27.6-9.5,39.6-32.47t12-46.72q0-19.69-6.18-35.07A103.9,103.9,0,0,0,280.3,66.74a82.38,82.38,0,0,0-31.22-23.31q-18.42-7.92-52.62-8.6H36.93V155.15A163.69,163.69,0,0,1,105,170.72v-78H182q21.49,0,32.23,5.88,19.12,10.41,19.13,40.73,0,28.06-19.77,37.56-11.18,5.43-33.52,5.43H125a115.92,115.92,0,0,1,21.59,19.76c9.88,3.74,15.34,12.62,16.55,22.31a29.94,29.94,0,0,1,3.79,10.86c.33.76.71,1.49,1,2.27h5.22q29.11,0,39.71,10.64t11,42.54l.45,31a164.26,164.26,0,0,0,2.94,28.74q1.36,6.79,4.52,17.87h76.93V360Q298.56,353.88,295.81,341Z"/><path class="cls-4" d="M104.2,243.17c-16-19.49-41.83-28.66-67.27-29V368.36H105V244.09C104.76,243.78,104.47,243.5,104.2,243.17Z"/></g></svg>