<svg id="Layer_1" data-name="Layer 1" xmlns="http://www.w3.org/2000/svg" viewBox="0 0 345.6 403.2"><defs><style>.cls-1{fill:#ffff43;}</style></defs><title>letters</title><path class="cls-1" d="M94.4,259c7.9,10.84,11.06,23.84,19.38,34.17,14.73,17.34,38.84,20.51,59.38,20.59,13.44.06,27.59-1,40.89-5.43,16-5.36,34-22.94,28.91-38.69-3.38-10.47-16.93-19.51-27.48-25.57-11-6.34-22.52-12-34.91-15.61-10.38-3.17-15.28-4.75-26.2-7.92-26.85-7.86-53.89-16.14-80.23-25.57A121.83,121.83,0,0,1,45.9,181.84q-6.81-7.14,1.38-11.25,7.54-2.84,5.17-11c-3.2-7.83-8.19-16-10.81-22.93C33.26,114.6,54.18,79.05,73,62.25c26-23.23,63.93-29.77,96.89-29.64,31.65.13,64.71,8,91.05,27.94,10.9,8.26,24.29,20.91,28.46,34.33,5.46,17.57-7.08,28.31,2.27,46.79h-67c-7.78-12.68-4.09-35.33-18.39-42.76-13-6.63-27.08-7.91-41.25-8.37-15-.49-31.23,2.74-44.08,10.86-10.32,6.52-18.06,19.46-16.18,30.32s15.38,21.38,26.22,26.7c11.24,5.68,24,8,36.37,9.62,14.29,3.13,29.35,3.68,43.84,5.62,25.27,3.65,54.18,12.95,77.59,22.72,13.91,7.78,26.3,12.57,16.77,28.79-11,18.72-9.8,20.25,2.21,39.31,14.2,22.55-15.66,61.86-32,75.91-27.68,23.77-65.18,30.19-99.83,30.21-35.4,0-74.61-7-103.6-29.76A98.56,98.56,0,0,1,44,305.52c-7.1-15.34-7.5-31.85-16.1-46.47Z"/></svg>