<svg id="Layer_1" data-name="Layer 1" xmlns="http://www.w3.org/2000/svg" viewBox="0 0 418 403.2"><defs><style>.cls-1{fill:#ffff43;}</style></defs><title>letters</title><path class="cls-1" d="M35.73,40.45c5.2,0,10.48.61,15.57-.12,12.17-1.76,17.05,5.86,18.12,15.4,5.48,48.92,25.29,94.55,32.34,143,2.72,18.71,7.69,36.79,12.2,55.07,2.44,9.87,7,7.88,12.81,8.45,6.63.65,7.88-2,9-8.53C146.08,196.53,156.54,139.31,170,82.68a95.25,95.25,0,0,0,2.44-19.92c.21-20.5,10.92-22.87,27.67-22.58,43.6.78,43.14.33,49.88,44.19,9.07,59.06,22.52,117.3,34.34,175.84,1.55,7.69,6.26,5.07,10.2,5.39,5.68.45,9.64.93,11.29-7.94,5.69-30.7,13.4-61,20.3-91.51q12.2-53.86,24.3-107.75c2.74-12.29,7.72-21.15,22.67-18,2.77.58,5.76.08,8.64.08,32.2,0,31.47-.21,22.38,31.51q-39.5,137.9-77.68,276.18c-2.78,10.06-6.89,15-17.15,14.6-2.88-.11-5.77,0-8.66,0-34.54,0-35.65.25-42.68-32.62-13.8-64.53-26.39-129.31-39-194.1-1.16-6-1.28-10-8.54-8.95-5.48.79-11.11-2.58-13,8.08-8.09,45.1-18,89.89-27.23,134.78q-8.63,41.86-17.32,83.71c-.23,1.11.27,2.82-.34,3.35-14.06,12.08-30.8,3-46.12,5.63-7.15,1.2-10.64-1.85-12.83-9.85C80.35,304.5,66.17,256.5,52.37,208.39Q33.52,142.66,14.83,76.89c-.46-1.61-.2-3.44-.71-5C4.34,41.19,4.84,40.45,35.73,40.45Z"/></svg>