<svg id="Layer_1" data-name="Layer 1" xmlns="http://www.w3.org/2000/svg" viewBox="0 0 345.6 403.2"><defs><style>.cls-1{fill:#ffff43;}</style></defs><title>letters</title><path class="cls-1" d="M105.82,368.36h-81l53.63-85,23.43-37.13,11.31-17.92c9.88-15.65,13.21-16.37,32.47-16.15-6.3-21.62-30-40.45-42.32-59.83-7.55-11.84-14.86-23.83-22.3-35.74L30,34.84h83.27c3.62,9.65,2.37,26.34,7.11,35C125,78.1,135.75,82.54,141.8,89.56c14.66,17,23.14,38.24,22.11,60.39,15.57-12.68,21.6-18.69,30.88-33.65,5.66-9.12,10.32-12,18.67-19.44,7.05-6.29,18.91-19.44,21-28.86C237,56.87,227,47,233.9,34.84h80.55l-51,80.44c-7.84,12.37-15.25,25.23-23.6,37.25-7.09,10.2-9.46,13.52-22.78,17.33-13.55,3.88-15.69,2.57-22.72,15.15,8.8,12.42,18.88,25.56,24.93,39.8A38.78,38.78,0,0,1,224.93,250l.7,17.4c6.75,9.29,13.85.36,22.3,4,8,3.43,7,10.2,12.18,17.76,7.77,11.35,20.4,18.79,28.94,29.6,12,15.14,21.49,33.28,31.73,49.6H236.16c-24.1-43.25-48-86.32-74.25-128.34-10.18,15.81-26.53,29.38-31.49,47.13-2.23,8-3.11,15.63-8.43,22.63-6,7.92-22.17,11.94-23.84,23.06C96.25,345.43,110.07,354.38,105.82,368.36Z"/></svg>