<?xml version="1.0" standalone="no"?>
<!DOCTYPE svg PUBLIC "-//W3C//DTD SVG 20010904//EN"
 "http://www.w3.org/TR/2001/REC-SVG-20010904/DTD/svg10.dtd">
<svg version="1.0" xmlns="http://www.w3.org/2000/svg"
 width="806.000000pt" height="806.000000pt" viewBox="0 0 806.000000 806.000000"
 preserveAspectRatio="xMidYMid meet">
<metadata>
Created by potrace 1.11, written by Peter Selinger 2001-2013
</metadata>
<g transform="translate(0.000000,806.000000) scale(0.100000,-0.100000)"
fill="#000000" stroke="none">
<path d="M3455 6918 c-468 -52 -892 -257 -1148 -553 -251 -290 -402 -688 -447
-1174 -6 -63 -7 -118 -2 -123 4 -4 258 -7 563 -6 l554 3 2 45 c9 161 53 313
144 492 82 161 148 229 280 293 227 108 466 121 724 38 80 -26 243 -103 317
-149 21 -14 98 -59 171 -101 243 -139 337 -216 379 -309 23 -53 18 -93 -18
-141 -13 -17 -101 -94 -196 -171 -151 -121 -218 -186 -348 -328 -46 -51 -167
-125 -393 -240 -248 -126 -295 -154 -376 -230 -79 -73 -120 -156 -170 -351
-22 -81 -58 -197 -81 -257 -101 -265 -71 -484 112 -798 l39 -68 524 0 c355 0
525 3 525 10 0 17 -47 106 -117 222 -83 139 -99 185 -83 235 24 75 93 193 154
265 35 41 117 116 187 170 179 139 200 164 301 368 50 100 108 201 135 235 30
37 106 104 199 175 208 158 306 242 468 400 207 202 346 379 346 439 -1 36
-32 101 -75 158 -20 27 -126 142 -236 256 -168 177 -209 225 -264 317 -117
194 -213 313 -333 414 -376 312 -930 479 -1577 475 -99 -1 -216 -6 -260 -11z"/>
<path d="M3152 2233 c-4 -10 -7 -108 -6 -218 0 -213 0 -210 74 -590 21 -110
42 -221 45 -247 l7 -48 584 0 584 0 -5 28 c-3 15 -27 142 -54 282 -27 140 -55
291 -62 335 -14 92 -18 345 -6 423 l8 52 -581 0 c-544 0 -581 -1 -588 -17z"/>
</g>
</svg>
